<svg xmlns="http://www.w3.org/2000/svg" xmlns:xlink="http://www.w3.org/1999/xlink" width="500" zoomAndPan="magnify" viewBox="0 0 375 374.999991" height="500" preserveAspectRatio="xMidYMid meet" version="1.0"><defs><g/><clipPath id="4ee60b77c4"><path d="M 124.9375 95.59375 L 250.1875 95.59375 L 250.1875 214.84375 L 124.9375 214.84375 Z M 124.9375 95.59375 " clip-rule="nonzero"/></clipPath></defs><g clip-path="url(#4ee60b77c4)"><path fill="#1d63ed" d="M 167.003906 196.195312 C 170.316406 196.195312 173.003906 198.886719 173.003906 202.199219 C 173.003906 205.515625 170.316406 208.203125 167.003906 208.203125 C 163.6875 208.203125 161 205.515625 161 202.199219 C 161 198.886719 163.6875 196.195312 167.003906 196.195312 Z M 207.996094 113.988281 C 204.683594 113.988281 201.992188 111.300781 201.992188 107.984375 C 201.992188 104.671875 204.683594 101.984375 207.996094 101.984375 C 211.3125 101.984375 214 104.671875 214 107.984375 C 214 111.300781 211.3125 113.988281 207.996094 113.988281 Z M 250.003906 154.671875 C 249.972656 150.039062 237.550781 145.167969 237.550781 140.945312 C 237.550781 137.511719 237.945312 133.949219 238.34375 130.25 C 238.871094 126.6875 239.269531 122.992188 239.269531 119.558594 C 239.269531 107.285156 231.347656 102.003906 219.601562 102.003906 L 218.859375 102.003906 C 216.746094 98.179688 212.675781 95.589844 207.996094 95.589844 C 201.152344 95.589844 195.601562 101.140625 195.601562 107.984375 C 195.601562 114.832031 201.152344 120.382812 207.996094 120.382812 C 213.621094 120.382812 218.371094 116.636719 219.886719 111.503906 C 225.417969 112.214844 227.386719 115.902344 227.386719 121.671875 C 227.386719 124.3125 226.992188 127.214844 226.464844 130.121094 C 226.199219 133.023438 225.671875 136.058594 225.671875 139.625 C 225.539062 148.863281 236.210938 149.976562 236.230469 154.542969 C 236.253906 159.140625 225.539062 160.347656 225.671875 169.585938 C 225.671875 173.152344 226.199219 176.320312 226.464844 179.222656 C 226.992188 182.128906 227.386719 184.898438 227.386719 187.539062 C 227.386719 192.09375 226.128906 195.261719 223.183594 196.835938 L 159.226562 102.003906 L 153.714844 102.003906 L 153.65625 102.046875 C 142.875 102.554688 135.730469 107.902344 135.730469 119.558594 C 135.730469 122.992188 136.128906 126.6875 136.65625 130.25 C 137.050781 133.949219 137.449219 137.511719 137.449219 140.945312 C 137.449219 145.167969 125.027344 150.039062 124.996094 154.671875 C 124.964844 159.28125 137.449219 164.4375 137.449219 168.269531 C 137.449219 171.699219 137.050781 175.132812 136.65625 178.695312 C 136.128906 182.257812 135.730469 185.957031 135.730469 189.253906 C 135.730469 202.585938 143.914062 207.339844 155.398438 207.339844 L 155.71875 207.339844 C 157.671875 211.621094 161.988281 214.597656 167.003906 214.597656 C 173.847656 214.597656 179.402344 209.046875 179.402344 202.199219 C 179.402344 195.351562 173.847656 189.800781 167.003906 189.800781 C 161.679688 189.800781 157.140625 193.15625 155.382812 197.867188 C 149.859375 197.238281 147.613281 193.625 147.613281 187.539062 C 147.613281 184.898438 148.007812 182.128906 148.535156 179.222656 C 148.800781 176.320312 149.328125 173.152344 149.328125 169.585938 C 149.460938 160.347656 138.746094 159.140625 138.769531 154.542969 C 138.789062 149.976562 149.460938 148.863281 149.328125 139.625 C 149.328125 136.058594 148.800781 133.023438 148.535156 130.121094 C 148.007812 127.214844 147.613281 124.3125 147.613281 121.671875 C 147.613281 117.253906 148.769531 114.058594 151.796875 112.480469 L 215.773438 207.339844 L 219.601562 207.339844 C 231.082031 207.339844 239.269531 202.585938 239.269531 189.253906 C 239.269531 185.957031 238.871094 182.261719 238.34375 178.695312 C 237.945312 175.132812 237.550781 171.699219 237.550781 168.269531 C 237.550781 164.4375 250.03125 159.28125 250.003906 154.671875 " fill-opacity="1" fill-rule="nonzero"/></g><g fill="#ffffff" fill-opacity="1"><g transform="translate(99.477903, 253.406527)"><g><path d="M 3.890625 0.203125 C 3.398438 0.203125 3.023438 0.0664062 2.765625 -0.203125 C 2.503906 -0.472656 2.375 -0.847656 2.375 -1.328125 L 2.375 -18.90625 C 2.375 -19.40625 2.507812 -19.785156 2.78125 -20.046875 C 3.050781 -20.304688 3.429688 -20.4375 3.921875 -20.4375 L 10.84375 -20.4375 C 13.050781 -20.4375 14.753906 -19.890625 15.953125 -18.796875 C 17.148438 -17.710938 17.75 -16.179688 17.75 -14.203125 C 17.75 -12.210938 17.148438 -10.671875 15.953125 -9.578125 C 14.753906 -8.492188 13.050781 -7.953125 10.84375 -7.953125 L 5.390625 -7.953125 L 5.390625 -1.328125 C 5.390625 -0.847656 5.265625 -0.472656 5.015625 -0.203125 C 4.765625 0.0664062 4.390625 0.203125 3.890625 0.203125 Z M 5.390625 -10.359375 L 10.40625 -10.359375 C 11.863281 -10.359375 12.960938 -10.679688 13.703125 -11.328125 C 14.441406 -11.972656 14.8125 -12.929688 14.8125 -14.203125 C 14.8125 -15.460938 14.441406 -16.414062 13.703125 -17.0625 C 12.960938 -17.707031 11.863281 -18.03125 10.40625 -18.03125 L 5.390625 -18.03125 Z M 5.390625 -10.359375 "/></g></g></g><g fill="#ffffff" fill-opacity="1"><g transform="translate(119.163883, 253.406527)"><g><path d="M 2.265625 0.203125 C 1.878906 0.203125 1.566406 0.117188 1.328125 -0.046875 C 1.097656 -0.222656 0.960938 -0.457031 0.921875 -0.75 C 0.890625 -1.039062 0.953125 -1.367188 1.109375 -1.734375 L 8.96875 -19.375 C 9.15625 -19.832031 9.398438 -20.15625 9.703125 -20.34375 C 10.003906 -20.539062 10.335938 -20.640625 10.703125 -20.640625 C 11.046875 -20.640625 11.367188 -20.539062 11.671875 -20.34375 C 11.972656 -20.15625 12.21875 -19.832031 12.40625 -19.375 L 20.265625 -1.734375 C 20.441406 -1.367188 20.507812 -1.035156 20.46875 -0.734375 C 20.4375 -0.441406 20.3125 -0.210938 20.09375 -0.046875 C 19.882812 0.117188 19.585938 0.203125 19.203125 0.203125 C 18.773438 0.203125 18.4375 0.0976562 18.1875 -0.109375 C 17.9375 -0.328125 17.710938 -0.660156 17.515625 -1.109375 L 15.484375 -5.796875 L 16.84375 -4.984375 L 4.5 -4.984375 L 5.828125 -5.796875 L 3.828125 -1.109375 C 3.628906 -0.640625 3.414062 -0.300781 3.1875 -0.09375 C 2.957031 0.101562 2.648438 0.203125 2.265625 0.203125 Z M 10.640625 -17.109375 L 6.265625 -6.734375 L 5.53125 -7.421875 L 15.78125 -7.421875 L 15.109375 -6.734375 L 10.703125 -17.109375 Z M 10.640625 -17.109375 "/></g></g></g><g fill="#ffffff" fill-opacity="1"><g transform="translate(141.575124, 253.406527)"><g><path d="M 8.875 0.203125 C 8.394531 0.203125 8.019531 0.0664062 7.75 -0.203125 C 7.488281 -0.472656 7.359375 -0.847656 7.359375 -1.328125 L 7.359375 -17.921875 L 1.21875 -17.921875 C 0.8125 -17.921875 0.488281 -18.03125 0.25 -18.25 C 0.0195312 -18.476562 -0.09375 -18.796875 -0.09375 -19.203125 C -0.09375 -19.609375 0.0195312 -19.914062 0.25 -20.125 C 0.488281 -20.332031 0.8125 -20.4375 1.21875 -20.4375 L 16.5 -20.4375 C 16.925781 -20.4375 17.253906 -20.332031 17.484375 -20.125 C 17.710938 -19.914062 17.828125 -19.609375 17.828125 -19.203125 C 17.828125 -18.796875 17.710938 -18.476562 17.484375 -18.25 C 17.253906 -18.03125 16.925781 -17.921875 16.5 -17.921875 L 10.359375 -17.921875 L 10.359375 -1.328125 C 10.359375 -0.847656 10.234375 -0.472656 9.984375 -0.203125 C 9.742188 0.0664062 9.375 0.203125 8.875 0.203125 Z M 8.875 0.203125 "/></g></g></g><g fill="#ffffff" fill-opacity="1"><g transform="translate(160.362344, 253.406527)"><g><path d="M 3.890625 0.203125 C 3.398438 0.203125 3.023438 0.0664062 2.765625 -0.203125 C 2.503906 -0.472656 2.375 -0.847656 2.375 -1.328125 L 2.375 -19.109375 C 2.375 -19.609375 2.503906 -19.988281 2.765625 -20.25 C 3.023438 -20.507812 3.398438 -20.640625 3.890625 -20.640625 C 4.367188 -20.640625 4.738281 -20.507812 5 -20.25 C 5.257812 -19.988281 5.390625 -19.609375 5.390625 -19.109375 L 5.390625 -11.625 L 16.84375 -11.625 L 16.84375 -19.109375 C 16.84375 -19.609375 16.972656 -19.988281 17.234375 -20.25 C 17.492188 -20.507812 17.867188 -20.640625 18.359375 -20.640625 C 18.835938 -20.640625 19.203125 -20.507812 19.453125 -20.25 C 19.710938 -19.988281 19.84375 -19.609375 19.84375 -19.109375 L 19.84375 -1.328125 C 19.84375 -0.847656 19.710938 -0.472656 19.453125 -0.203125 C 19.203125 0.0664062 18.835938 0.203125 18.359375 0.203125 C 17.867188 0.203125 17.492188 0.0664062 17.234375 -0.203125 C 16.972656 -0.472656 16.84375 -0.847656 16.84375 -1.328125 L 16.84375 -9.109375 L 5.390625 -9.109375 L 5.390625 -1.328125 C 5.390625 -0.847656 5.265625 -0.472656 5.015625 -0.203125 C 4.765625 0.0664062 4.390625 0.203125 3.890625 0.203125 Z M 3.890625 0.203125 "/></g></g></g><g fill="#ffffff" fill-opacity="1"><g transform="translate(183.672344, 253.406527)"><g><path d="M 3.921875 0 C 3.429688 0 3.050781 -0.132812 2.78125 -0.40625 C 2.507812 -0.675781 2.375 -1.050781 2.375 -1.53125 L 2.375 -19.03125 C 2.375 -19.53125 2.503906 -19.910156 2.765625 -20.171875 C 3.023438 -20.429688 3.398438 -20.5625 3.890625 -20.5625 C 4.367188 -20.5625 4.738281 -20.429688 5 -20.171875 C 5.257812 -19.910156 5.390625 -19.53125 5.390625 -19.03125 L 5.390625 -2.578125 L 14.390625 -2.578125 C 14.804688 -2.578125 15.128906 -2.460938 15.359375 -2.234375 C 15.597656 -2.015625 15.71875 -1.707031 15.71875 -1.3125 C 15.71875 -0.90625 15.597656 -0.582031 15.359375 -0.34375 C 15.128906 -0.113281 14.804688 0 14.390625 0 Z M 3.921875 0 "/></g></g></g><g fill="#ffffff" fill-opacity="1"><g transform="translate(200.749023, 253.406527)"><g><path d="M 8.78125 0.203125 C 8.300781 0.203125 7.929688 0.0664062 7.671875 -0.203125 C 7.410156 -0.472656 7.28125 -0.859375 7.28125 -1.359375 L 7.28125 -10.5625 L 7.953125 -8.640625 L 0.78125 -18.59375 C 0.570312 -18.882812 0.472656 -19.1875 0.484375 -19.5 C 0.503906 -19.820312 0.632812 -20.09375 0.875 -20.3125 C 1.125 -20.53125 1.453125 -20.640625 1.859375 -20.640625 C 2.160156 -20.640625 2.441406 -20.5625 2.703125 -20.40625 C 2.972656 -20.257812 3.222656 -20.019531 3.453125 -19.6875 L 9.1875 -11.71875 L 8.5 -11.71875 L 14.234375 -19.6875 C 14.484375 -20.039062 14.722656 -20.285156 14.953125 -20.421875 C 15.191406 -20.566406 15.484375 -20.640625 15.828125 -20.640625 C 16.234375 -20.640625 16.546875 -20.535156 16.765625 -20.328125 C 16.992188 -20.128906 17.113281 -19.867188 17.125 -19.546875 C 17.132812 -19.234375 17.015625 -18.90625 16.765625 -18.5625 L 9.65625 -8.640625 L 10.265625 -10.5625 L 10.265625 -1.359375 C 10.265625 -0.316406 9.769531 0.203125 8.78125 0.203125 Z M 8.78125 0.203125 "/></g></g></g><g fill="#ffffff" fill-opacity="1"><g transform="translate(219.391276, 253.406527)"><g><path d="M 2.75 0 C 2.363281 0 2.050781 -0.078125 1.8125 -0.234375 C 1.570312 -0.390625 1.40625 -0.609375 1.3125 -0.890625 C 1.226562 -1.171875 1.226562 -1.476562 1.3125 -1.8125 C 1.40625 -2.144531 1.585938 -2.5 1.859375 -2.875 L 13.453125 -18.9375 L 13.453125 -17.921875 L 2.515625 -17.921875 C 2.078125 -17.921875 1.738281 -18.03125 1.5 -18.25 C 1.269531 -18.476562 1.15625 -18.796875 1.15625 -19.203125 C 1.15625 -19.609375 1.269531 -19.914062 1.5 -20.125 C 1.738281 -20.332031 2.078125 -20.4375 2.515625 -20.4375 L 14.84375 -20.4375 C 15.226562 -20.4375 15.546875 -20.359375 15.796875 -20.203125 C 16.054688 -20.054688 16.226562 -19.847656 16.3125 -19.578125 C 16.394531 -19.304688 16.394531 -18.992188 16.3125 -18.640625 C 16.226562 -18.296875 16.050781 -17.941406 15.78125 -17.578125 L 4.140625 -1.515625 L 4.140625 -2.515625 L 15.515625 -2.515625 C 15.960938 -2.515625 16.300781 -2.410156 16.53125 -2.203125 C 16.757812 -1.992188 16.875 -1.6875 16.875 -1.28125 C 16.875 -0.875 16.757812 -0.554688 16.53125 -0.328125 C 16.300781 -0.109375 15.960938 0 15.515625 0 Z M 2.75 0 "/></g></g></g><g fill="#ffffff" fill-opacity="1"><g transform="translate(237.743616, 253.406527)"><g><path d="M 4 0 C 3.476562 0 3.078125 -0.140625 2.796875 -0.421875 C 2.515625 -0.703125 2.375 -1.101562 2.375 -1.625 L 2.375 -18.828125 C 2.375 -19.347656 2.515625 -19.742188 2.796875 -20.015625 C 3.078125 -20.296875 3.476562 -20.4375 4 -20.4375 L 14.59375 -20.4375 C 15 -20.4375 15.304688 -20.335938 15.515625 -20.140625 C 15.722656 -19.941406 15.828125 -19.644531 15.828125 -19.25 C 15.828125 -18.84375 15.722656 -18.535156 15.515625 -18.328125 C 15.304688 -18.117188 15 -18.015625 14.59375 -18.015625 L 5.28125 -18.015625 L 5.28125 -11.59375 L 13.953125 -11.59375 C 14.378906 -11.59375 14.691406 -11.488281 14.890625 -11.28125 C 15.097656 -11.070312 15.203125 -10.769531 15.203125 -10.375 C 15.203125 -9.96875 15.097656 -9.660156 14.890625 -9.453125 C 14.691406 -9.253906 14.378906 -9.15625 13.953125 -9.15625 L 5.28125 -9.15625 L 5.28125 -2.4375 L 14.59375 -2.4375 C 15 -2.4375 15.304688 -2.328125 15.515625 -2.109375 C 15.722656 -1.898438 15.828125 -1.601562 15.828125 -1.21875 C 15.828125 -0.8125 15.722656 -0.503906 15.515625 -0.296875 C 15.304688 -0.0976562 15 0 14.59375 0 Z M 4 0 "/></g></g></g><g fill="#ffffff" fill-opacity="1"><g transform="translate(255.893005, 253.406527)"><g><path d="M 3.890625 0.203125 C 3.398438 0.203125 3.023438 0.0664062 2.765625 -0.203125 C 2.503906 -0.472656 2.375 -0.847656 2.375 -1.328125 L 2.375 -18.90625 C 2.375 -19.40625 2.507812 -19.785156 2.78125 -20.046875 C 3.050781 -20.304688 3.429688 -20.4375 3.921875 -20.4375 L 10.84375 -20.4375 C 13.050781 -20.4375 14.753906 -19.914062 15.953125 -18.875 C 17.148438 -17.832031 17.75 -16.351562 17.75 -14.4375 C 17.75 -13.207031 17.476562 -12.144531 16.9375 -11.25 C 16.394531 -10.363281 15.601562 -9.6875 14.5625 -9.21875 C 13.53125 -8.757812 12.289062 -8.53125 10.84375 -8.53125 L 11.109375 -8.9375 L 11.859375 -8.9375 C 12.628906 -8.9375 13.300781 -8.738281 13.875 -8.34375 C 14.445312 -7.957031 14.960938 -7.34375 15.421875 -6.5 L 17.921875 -1.859375 C 18.117188 -1.503906 18.210938 -1.164062 18.203125 -0.84375 C 18.191406 -0.53125 18.070312 -0.273438 17.84375 -0.078125 C 17.625 0.109375 17.3125 0.203125 16.90625 0.203125 C 16.476562 0.203125 16.132812 0.113281 15.875 -0.0625 C 15.613281 -0.25 15.378906 -0.53125 15.171875 -0.90625 L 12.125 -6.53125 C 11.71875 -7.28125 11.253906 -7.785156 10.734375 -8.046875 C 10.210938 -8.304688 9.523438 -8.4375 8.671875 -8.4375 L 5.390625 -8.4375 L 5.390625 -1.328125 C 5.390625 -0.847656 5.265625 -0.472656 5.015625 -0.203125 C 4.765625 0.0664062 4.390625 0.203125 3.890625 0.203125 Z M 5.390625 -10.703125 L 10.359375 -10.703125 C 11.828125 -10.703125 12.9375 -11.007812 13.6875 -11.625 C 14.4375 -12.25 14.8125 -13.171875 14.8125 -14.390625 C 14.8125 -15.585938 14.4375 -16.492188 13.6875 -17.109375 C 12.9375 -17.722656 11.828125 -18.03125 10.359375 -18.03125 L 5.390625 -18.03125 Z M 5.390625 -10.703125 "/></g></g></g><g fill="#ffffff" fill-opacity="1"><g transform="translate(35.62688, 273.206526)"><g><path d="M 3.875 0.09375 C 3.695312 0.09375 3.5625 0.046875 3.46875 -0.046875 C 3.382812 -0.148438 3.34375 -0.296875 3.34375 -0.484375 L 3.34375 -4.75 L 3.578125 -4 L 0.3125 -8.5 C 0.226562 -8.613281 0.1875 -8.726562 0.1875 -8.84375 C 0.195312 -8.957031 0.242188 -9.050781 0.328125 -9.125 C 0.421875 -9.207031 0.535156 -9.25 0.671875 -9.25 C 0.796875 -9.25 0.90625 -9.222656 1 -9.171875 C 1.09375 -9.117188 1.179688 -9.03125 1.265625 -8.90625 L 4.03125 -5.078125 L 3.75 -5.078125 L 6.53125 -8.90625 C 6.625 -9.03125 6.710938 -9.117188 6.796875 -9.171875 C 6.878906 -9.222656 6.984375 -9.25 7.109375 -9.25 C 7.242188 -9.25 7.347656 -9.210938 7.421875 -9.140625 C 7.503906 -9.066406 7.546875 -8.972656 7.546875 -8.859375 C 7.554688 -8.742188 7.519531 -8.617188 7.4375 -8.484375 L 4.1875 -4 L 4.40625 -4.75 L 4.40625 -0.484375 C 4.40625 -0.0976562 4.226562 0.09375 3.875 0.09375 Z M 3.875 0.09375 "/></g></g></g><g fill="#ffffff" fill-opacity="1"><g transform="translate(47.740547, 273.206526)"><g><path d="M 4.984375 0.109375 C 4.128906 0.109375 3.382812 -0.0820312 2.75 -0.46875 C 2.125 -0.851562 1.640625 -1.394531 1.296875 -2.09375 C 0.960938 -2.789062 0.796875 -3.625 0.796875 -4.59375 C 0.796875 -5.320312 0.890625 -5.972656 1.078125 -6.546875 C 1.273438 -7.117188 1.554688 -7.609375 1.921875 -8.015625 C 2.285156 -8.421875 2.722656 -8.734375 3.234375 -8.953125 C 3.753906 -9.171875 4.335938 -9.28125 4.984375 -9.28125 C 5.847656 -9.28125 6.59375 -9.085938 7.21875 -8.703125 C 7.84375 -8.328125 8.328125 -7.789062 8.671875 -7.09375 C 9.015625 -6.394531 9.1875 -5.566406 9.1875 -4.609375 C 9.1875 -3.878906 9.085938 -3.222656 8.890625 -2.640625 C 8.691406 -2.054688 8.410156 -1.5625 8.046875 -1.15625 C 7.679688 -0.75 7.238281 -0.4375 6.71875 -0.21875 C 6.207031 0 5.628906 0.109375 4.984375 0.109375 Z M 4.984375 -0.828125 C 5.640625 -0.828125 6.191406 -0.972656 6.640625 -1.265625 C 7.097656 -1.566406 7.445312 -2 7.6875 -2.5625 C 7.9375 -3.125 8.0625 -3.800781 8.0625 -4.59375 C 8.0625 -5.78125 7.796875 -6.695312 7.265625 -7.34375 C 6.734375 -8 5.972656 -8.328125 4.984375 -8.328125 C 4.335938 -8.328125 3.785156 -8.179688 3.328125 -7.890625 C 2.878906 -7.597656 2.53125 -7.171875 2.28125 -6.609375 C 2.039062 -6.046875 1.921875 -5.375 1.921875 -4.59375 C 1.921875 -3.414062 2.1875 -2.492188 2.71875 -1.828125 C 3.257812 -1.160156 4.015625 -0.828125 4.984375 -0.828125 Z M 4.984375 -0.828125 "/></g></g></g><g fill="#ffffff" fill-opacity="1"><g transform="translate(62.076529, 273.206526)"><g><path d="M 4.75 0.109375 C 4.132812 0.109375 3.597656 0.03125 3.140625 -0.125 C 2.691406 -0.28125 2.3125 -0.515625 2 -0.828125 C 1.6875 -1.148438 1.453125 -1.546875 1.296875 -2.015625 C 1.140625 -2.484375 1.0625 -3.019531 1.0625 -3.625 L 1.0625 -8.703125 C 1.0625 -8.890625 1.109375 -9.023438 1.203125 -9.109375 C 1.296875 -9.203125 1.425781 -9.25 1.59375 -9.25 C 1.769531 -9.25 1.898438 -9.203125 1.984375 -9.109375 C 2.078125 -9.023438 2.125 -8.890625 2.125 -8.703125 L 2.125 -3.671875 C 2.125 -2.722656 2.34375 -2.007812 2.78125 -1.53125 C 3.226562 -1.0625 3.882812 -0.828125 4.75 -0.828125 C 5.601562 -0.828125 6.242188 -1.0625 6.671875 -1.53125 C 7.109375 -2.007812 7.328125 -2.722656 7.328125 -3.671875 L 7.328125 -8.703125 C 7.328125 -8.890625 7.375 -9.023438 7.46875 -9.109375 C 7.570312 -9.203125 7.707031 -9.25 7.875 -9.25 C 8.039062 -9.25 8.164062 -9.203125 8.25 -9.109375 C 8.34375 -9.023438 8.390625 -8.890625 8.390625 -8.703125 L 8.390625 -3.625 C 8.390625 -2.820312 8.253906 -2.140625 7.984375 -1.578125 C 7.710938 -1.015625 7.300781 -0.59375 6.75 -0.3125 C 6.207031 -0.03125 5.539062 0.109375 4.75 0.109375 Z M 4.75 0.109375 "/></g></g></g><g fill="#ffffff" fill-opacity="1"><g transform="translate(75.905675, 273.206526)"><g><path d="M 1.65625 0.09375 C 1.488281 0.09375 1.359375 0.046875 1.265625 -0.046875 C 1.171875 -0.148438 1.125 -0.289062 1.125 -0.46875 L 1.125 -8.625 C 1.125 -8.800781 1.171875 -8.9375 1.265625 -9.03125 C 1.367188 -9.125 1.503906 -9.171875 1.671875 -9.171875 L 4.765625 -9.171875 C 5.742188 -9.171875 6.492188 -8.9375 7.015625 -8.46875 C 7.546875 -8.007812 7.8125 -7.359375 7.8125 -6.515625 C 7.8125 -5.972656 7.691406 -5.503906 7.453125 -5.109375 C 7.210938 -4.722656 6.863281 -4.425781 6.40625 -4.21875 C 5.945312 -4.007812 5.398438 -3.90625 4.765625 -3.90625 L 4.890625 -4.078125 L 5.140625 -4.078125 C 5.484375 -4.078125 5.78125 -3.988281 6.03125 -3.8125 C 6.28125 -3.644531 6.507812 -3.367188 6.71875 -2.984375 L 7.96875 -0.65625 C 8.039062 -0.539062 8.070312 -0.421875 8.0625 -0.296875 C 8.0625 -0.179688 8.019531 -0.0859375 7.9375 -0.015625 C 7.863281 0.0546875 7.753906 0.09375 7.609375 0.09375 C 7.460938 0.09375 7.335938 0.0625 7.234375 0 C 7.140625 -0.0703125 7.0625 -0.175781 7 -0.3125 L 5.578125 -2.9375 C 5.378906 -3.3125 5.148438 -3.5625 4.890625 -3.6875 C 4.628906 -3.8125 4.285156 -3.875 3.859375 -3.875 L 2.203125 -3.875 L 2.203125 -0.46875 C 2.203125 -0.289062 2.15625 -0.148438 2.0625 -0.046875 C 1.976562 0.046875 1.84375 0.09375 1.65625 0.09375 Z M 2.203125 -4.71875 L 4.609375 -4.71875 C 5.316406 -4.71875 5.851562 -4.863281 6.21875 -5.15625 C 6.582031 -5.457031 6.765625 -5.910156 6.765625 -6.515625 C 6.765625 -7.097656 6.582031 -7.535156 6.21875 -7.828125 C 5.851562 -8.128906 5.316406 -8.28125 4.609375 -8.28125 L 2.203125 -8.28125 Z M 2.203125 -4.71875 "/></g></g></g><g fill="#ffffff" fill-opacity="1"><g transform="translate(88.968058, 273.206526)"><g/></g></g><g fill="#ffffff" fill-opacity="1"><g transform="translate(96.689072, 273.206526)"><g><path d="M 1.65625 0.09375 C 1.488281 0.09375 1.359375 0.046875 1.265625 -0.046875 C 1.171875 -0.148438 1.125 -0.289062 1.125 -0.46875 L 1.125 -8.625 C 1.125 -8.800781 1.171875 -8.9375 1.265625 -9.03125 C 1.367188 -9.125 1.503906 -9.171875 1.671875 -9.171875 L 4.765625 -9.171875 C 5.742188 -9.171875 6.492188 -8.9375 7.015625 -8.46875 C 7.546875 -8.007812 7.8125 -7.359375 7.8125 -6.515625 C 7.8125 -5.972656 7.691406 -5.503906 7.453125 -5.109375 C 7.210938 -4.722656 6.863281 -4.425781 6.40625 -4.21875 C 5.945312 -4.007812 5.398438 -3.90625 4.765625 -3.90625 L 4.890625 -4.078125 L 5.140625 -4.078125 C 5.484375 -4.078125 5.78125 -3.988281 6.03125 -3.8125 C 6.28125 -3.644531 6.507812 -3.367188 6.71875 -2.984375 L 7.96875 -0.65625 C 8.039062 -0.539062 8.070312 -0.421875 8.0625 -0.296875 C 8.0625 -0.179688 8.019531 -0.0859375 7.9375 -0.015625 C 7.863281 0.0546875 7.753906 0.09375 7.609375 0.09375 C 7.460938 0.09375 7.335938 0.0625 7.234375 0 C 7.140625 -0.0703125 7.0625 -0.175781 7 -0.3125 L 5.578125 -2.9375 C 5.378906 -3.3125 5.148438 -3.5625 4.890625 -3.6875 C 4.628906 -3.8125 4.285156 -3.875 3.859375 -3.875 L 2.203125 -3.875 L 2.203125 -0.46875 C 2.203125 -0.289062 2.15625 -0.148438 2.0625 -0.046875 C 1.976562 0.046875 1.84375 0.09375 1.65625 0.09375 Z M 2.203125 -4.71875 L 4.609375 -4.71875 C 5.316406 -4.71875 5.851562 -4.863281 6.21875 -5.15625 C 6.582031 -5.457031 6.765625 -5.910156 6.765625 -6.515625 C 6.765625 -7.097656 6.582031 -7.535156 6.21875 -7.828125 C 5.851562 -8.128906 5.316406 -8.28125 4.609375 -8.28125 L 2.203125 -8.28125 Z M 2.203125 -4.71875 "/></g></g></g><g fill="#ffffff" fill-opacity="1"><g transform="translate(109.751455, 273.206526)"><g><path d="M 4.984375 0.109375 C 4.128906 0.109375 3.382812 -0.0820312 2.75 -0.46875 C 2.125 -0.851562 1.640625 -1.394531 1.296875 -2.09375 C 0.960938 -2.789062 0.796875 -3.625 0.796875 -4.59375 C 0.796875 -5.320312 0.890625 -5.972656 1.078125 -6.546875 C 1.273438 -7.117188 1.554688 -7.609375 1.921875 -8.015625 C 2.285156 -8.421875 2.722656 -8.734375 3.234375 -8.953125 C 3.753906 -9.171875 4.335938 -9.28125 4.984375 -9.28125 C 5.847656 -9.28125 6.59375 -9.085938 7.21875 -8.703125 C 7.84375 -8.328125 8.328125 -7.789062 8.671875 -7.09375 C 9.015625 -6.394531 9.1875 -5.566406 9.1875 -4.609375 C 9.1875 -3.878906 9.085938 -3.222656 8.890625 -2.640625 C 8.691406 -2.054688 8.410156 -1.5625 8.046875 -1.15625 C 7.679688 -0.75 7.238281 -0.4375 6.71875 -0.21875 C 6.207031 0 5.628906 0.109375 4.984375 0.109375 Z M 4.984375 -0.828125 C 5.640625 -0.828125 6.191406 -0.972656 6.640625 -1.265625 C 7.097656 -1.566406 7.445312 -2 7.6875 -2.5625 C 7.9375 -3.125 8.0625 -3.800781 8.0625 -4.59375 C 8.0625 -5.78125 7.796875 -6.695312 7.265625 -7.34375 C 6.734375 -8 5.972656 -8.328125 4.984375 -8.328125 C 4.335938 -8.328125 3.785156 -8.179688 3.328125 -7.890625 C 2.878906 -7.597656 2.53125 -7.171875 2.28125 -6.609375 C 2.039062 -6.046875 1.921875 -5.375 1.921875 -4.59375 C 1.921875 -3.414062 2.1875 -2.492188 2.71875 -1.828125 C 3.257812 -1.160156 4.015625 -0.828125 4.984375 -0.828125 Z M 4.984375 -0.828125 "/></g></g></g><g fill="#ffffff" fill-opacity="1"><g transform="translate(124.087439, 273.206526)"><g><path d="M 0.9375 0.09375 C 0.800781 0.09375 0.691406 0.0625 0.609375 0 C 0.523438 -0.0703125 0.472656 -0.160156 0.453125 -0.265625 C 0.441406 -0.367188 0.46875 -0.492188 0.53125 -0.640625 L 4.109375 -8.78125 C 4.179688 -8.945312 4.269531 -9.066406 4.375 -9.140625 C 4.488281 -9.210938 4.613281 -9.25 4.75 -9.25 C 4.875 -9.25 4.988281 -9.210938 5.09375 -9.140625 C 5.207031 -9.066406 5.300781 -8.945312 5.375 -8.78125 L 8.953125 -0.640625 C 9.023438 -0.492188 9.050781 -0.363281 9.03125 -0.25 C 9.019531 -0.144531 8.972656 -0.0625 8.890625 0 C 8.816406 0.0625 8.710938 0.09375 8.578125 0.09375 C 8.421875 0.09375 8.296875 0.0507812 8.203125 -0.03125 C 8.109375 -0.113281 8.03125 -0.234375 7.96875 -0.390625 L 7 -2.609375 L 7.53125 -2.34375 L 1.9375 -2.34375 L 2.46875 -2.609375 L 1.515625 -0.390625 C 1.441406 -0.222656 1.359375 -0.0976562 1.265625 -0.015625 C 1.179688 0.0546875 1.070312 0.09375 0.9375 0.09375 Z M 4.734375 -7.921875 L 2.640625 -2.984375 L 2.328125 -3.234375 L 7.140625 -3.234375 L 6.84375 -2.984375 L 4.765625 -7.921875 Z M 4.734375 -7.921875 "/></g></g></g><g fill="#ffffff" fill-opacity="1"><g transform="translate(137.929571, 273.206526)"><g><path d="M 1.71875 0 C 1.53125 0 1.382812 -0.046875 1.28125 -0.140625 C 1.175781 -0.242188 1.125 -0.390625 1.125 -0.578125 L 1.125 -8.578125 C 1.125 -8.765625 1.175781 -8.910156 1.28125 -9.015625 C 1.382812 -9.117188 1.53125 -9.171875 1.71875 -9.171875 L 4.21875 -9.171875 C 5.707031 -9.171875 6.851562 -8.78125 7.65625 -8 C 8.457031 -7.21875 8.859375 -6.082031 8.859375 -4.59375 C 8.859375 -3.84375 8.753906 -3.179688 8.546875 -2.609375 C 8.347656 -2.046875 8.050781 -1.566406 7.65625 -1.171875 C 7.257812 -0.785156 6.773438 -0.492188 6.203125 -0.296875 C 5.628906 -0.0976562 4.96875 0 4.21875 0 Z M 2.203125 -0.90625 L 4.140625 -0.90625 C 4.753906 -0.90625 5.28125 -0.984375 5.71875 -1.140625 C 6.164062 -1.296875 6.539062 -1.523438 6.84375 -1.828125 C 7.144531 -2.128906 7.367188 -2.507812 7.515625 -2.96875 C 7.660156 -3.4375 7.734375 -3.976562 7.734375 -4.59375 C 7.734375 -5.8125 7.429688 -6.722656 6.828125 -7.328125 C 6.234375 -7.941406 5.335938 -8.25 4.140625 -8.25 L 2.203125 -8.25 Z M 2.203125 -0.90625 "/></g></g></g><g fill="#ffffff" fill-opacity="1"><g transform="translate(151.940651, 273.206526)"><g><path d="M 1.65625 0.09375 C 1.5 0.09375 1.375 0.046875 1.28125 -0.046875 C 1.195312 -0.140625 1.15625 -0.265625 1.15625 -0.421875 L 1.15625 -8.734375 C 1.15625 -8.910156 1.195312 -9.039062 1.28125 -9.125 C 1.375 -9.207031 1.5 -9.25 1.65625 -9.25 C 1.789062 -9.25 1.898438 -9.222656 1.984375 -9.171875 C 2.066406 -9.117188 2.140625 -9.023438 2.203125 -8.890625 L 5.765625 -2.1875 L 5.375 -2.1875 L 8.9375 -8.890625 C 9 -9.023438 9.066406 -9.117188 9.140625 -9.171875 C 9.222656 -9.222656 9.335938 -9.25 9.484375 -9.25 C 9.640625 -9.25 9.757812 -9.207031 9.84375 -9.125 C 9.925781 -9.039062 9.96875 -8.910156 9.96875 -8.734375 L 9.96875 -0.421875 C 9.96875 -0.265625 9.925781 -0.140625 9.84375 -0.046875 C 9.757812 0.046875 9.640625 0.09375 9.484375 0.09375 C 9.328125 0.09375 9.203125 0.046875 9.109375 -0.046875 C 9.023438 -0.140625 8.984375 -0.265625 8.984375 -0.421875 L 8.984375 -7.734375 L 9.296875 -7.734375 L 6.046875 -1.640625 C 5.984375 -1.523438 5.921875 -1.441406 5.859375 -1.390625 C 5.796875 -1.347656 5.703125 -1.328125 5.578125 -1.328125 C 5.453125 -1.328125 5.351562 -1.351562 5.28125 -1.40625 C 5.21875 -1.457031 5.160156 -1.535156 5.109375 -1.640625 L 1.8125 -7.75 L 2.125 -7.75 L 2.125 -0.421875 C 2.125 -0.265625 2.082031 -0.140625 2 -0.046875 C 1.925781 0.046875 1.8125 0.09375 1.65625 0.09375 Z M 1.65625 0.09375 "/></g></g></g><g fill="#ffffff" fill-opacity="1"><g transform="translate(167.420284, 273.206526)"><g><path d="M 0.9375 0.09375 C 0.800781 0.09375 0.691406 0.0625 0.609375 0 C 0.523438 -0.0703125 0.472656 -0.160156 0.453125 -0.265625 C 0.441406 -0.367188 0.46875 -0.492188 0.53125 -0.640625 L 4.109375 -8.78125 C 4.179688 -8.945312 4.269531 -9.066406 4.375 -9.140625 C 4.488281 -9.210938 4.613281 -9.25 4.75 -9.25 C 4.875 -9.25 4.988281 -9.210938 5.09375 -9.140625 C 5.207031 -9.066406 5.300781 -8.945312 5.375 -8.78125 L 8.953125 -0.640625 C 9.023438 -0.492188 9.050781 -0.363281 9.03125 -0.25 C 9.019531 -0.144531 8.972656 -0.0625 8.890625 0 C 8.816406 0.0625 8.710938 0.09375 8.578125 0.09375 C 8.421875 0.09375 8.296875 0.0507812 8.203125 -0.03125 C 8.109375 -0.113281 8.03125 -0.234375 7.96875 -0.390625 L 7 -2.609375 L 7.53125 -2.34375 L 1.9375 -2.34375 L 2.46875 -2.609375 L 1.515625 -0.390625 C 1.441406 -0.222656 1.359375 -0.0976562 1.265625 -0.015625 C 1.179688 0.0546875 1.070312 0.09375 0.9375 0.09375 Z M 4.734375 -7.921875 L 2.640625 -2.984375 L 2.328125 -3.234375 L 7.140625 -3.234375 L 6.84375 -2.984375 L 4.765625 -7.921875 Z M 4.734375 -7.921875 "/></g></g></g><g fill="#ffffff" fill-opacity="1"><g transform="translate(181.262416, 273.206526)"><g><path d="M 1.65625 0.09375 C 1.488281 0.09375 1.359375 0.046875 1.265625 -0.046875 C 1.171875 -0.148438 1.125 -0.289062 1.125 -0.46875 L 1.125 -8.625 C 1.125 -8.800781 1.171875 -8.9375 1.265625 -9.03125 C 1.367188 -9.125 1.503906 -9.171875 1.671875 -9.171875 L 4.765625 -9.171875 C 5.742188 -9.171875 6.492188 -8.925781 7.015625 -8.4375 C 7.546875 -7.957031 7.8125 -7.28125 7.8125 -6.40625 C 7.8125 -5.539062 7.546875 -4.863281 7.015625 -4.375 C 6.492188 -3.894531 5.742188 -3.65625 4.765625 -3.65625 L 2.203125 -3.65625 L 2.203125 -0.46875 C 2.203125 -0.289062 2.15625 -0.148438 2.0625 -0.046875 C 1.976562 0.046875 1.84375 0.09375 1.65625 0.09375 Z M 2.203125 -4.546875 L 4.625 -4.546875 C 5.332031 -4.546875 5.863281 -4.703125 6.21875 -5.015625 C 6.582031 -5.335938 6.765625 -5.800781 6.765625 -6.40625 C 6.765625 -7.019531 6.582031 -7.484375 6.21875 -7.796875 C 5.863281 -8.117188 5.332031 -8.28125 4.625 -8.28125 L 2.203125 -8.28125 Z M 2.203125 -4.546875 "/></g></g></g><g fill="#ffffff" fill-opacity="1"><g transform="translate(193.856935, 273.206526)"><g/></g></g><g fill="#ffffff" fill-opacity="1"><g transform="translate(201.577943, 273.206526)"><g><path d="M 3.90625 0.09375 C 3.75 0.09375 3.617188 0.046875 3.515625 -0.046875 C 3.421875 -0.148438 3.375 -0.289062 3.375 -0.46875 L 3.375 -8.234375 L 0.453125 -8.234375 C 0.296875 -8.234375 0.175781 -8.273438 0.09375 -8.359375 C 0.0078125 -8.453125 -0.03125 -8.566406 -0.03125 -8.703125 C -0.03125 -8.859375 0.0078125 -8.972656 0.09375 -9.046875 C 0.175781 -9.128906 0.296875 -9.171875 0.453125 -9.171875 L 7.390625 -9.171875 C 7.546875 -9.171875 7.664062 -9.128906 7.75 -9.046875 C 7.832031 -8.972656 7.875 -8.859375 7.875 -8.703125 C 7.875 -8.554688 7.832031 -8.441406 7.75 -8.359375 C 7.664062 -8.273438 7.546875 -8.234375 7.390625 -8.234375 L 4.453125 -8.234375 L 4.453125 -0.46875 C 4.453125 -0.289062 4.40625 -0.148438 4.3125 -0.046875 C 4.226562 0.046875 4.09375 0.09375 3.90625 0.09375 Z M 3.90625 0.09375 "/></g></g></g><g fill="#ffffff" fill-opacity="1"><g transform="translate(213.769585, 273.206526)"><g><path d="M 4.984375 0.109375 C 4.128906 0.109375 3.382812 -0.0820312 2.75 -0.46875 C 2.125 -0.851562 1.640625 -1.394531 1.296875 -2.09375 C 0.960938 -2.789062 0.796875 -3.625 0.796875 -4.59375 C 0.796875 -5.320312 0.890625 -5.972656 1.078125 -6.546875 C 1.273438 -7.117188 1.554688 -7.609375 1.921875 -8.015625 C 2.285156 -8.421875 2.722656 -8.734375 3.234375 -8.953125 C 3.753906 -9.171875 4.335938 -9.28125 4.984375 -9.28125 C 5.847656 -9.28125 6.59375 -9.085938 7.21875 -8.703125 C 7.84375 -8.328125 8.328125 -7.789062 8.671875 -7.09375 C 9.015625 -6.394531 9.1875 -5.566406 9.1875 -4.609375 C 9.1875 -3.878906 9.085938 -3.222656 8.890625 -2.640625 C 8.691406 -2.054688 8.410156 -1.5625 8.046875 -1.15625 C 7.679688 -0.75 7.238281 -0.4375 6.71875 -0.21875 C 6.207031 0 5.628906 0.109375 4.984375 0.109375 Z M 4.984375 -0.828125 C 5.640625 -0.828125 6.191406 -0.972656 6.640625 -1.265625 C 7.097656 -1.566406 7.445312 -2 7.6875 -2.5625 C 7.9375 -3.125 8.0625 -3.800781 8.0625 -4.59375 C 8.0625 -5.78125 7.796875 -6.695312 7.265625 -7.34375 C 6.734375 -8 5.972656 -8.328125 4.984375 -8.328125 C 4.335938 -8.328125 3.785156 -8.179688 3.328125 -7.890625 C 2.878906 -7.597656 2.53125 -7.171875 2.28125 -6.609375 C 2.039062 -6.046875 1.921875 -5.375 1.921875 -4.59375 C 1.921875 -3.414062 2.1875 -2.492188 2.71875 -1.828125 C 3.257812 -1.160156 4.015625 -0.828125 4.984375 -0.828125 Z M 4.984375 -0.828125 "/></g></g></g><g fill="#ffffff" fill-opacity="1"><g transform="translate(228.105575, 273.206526)"><g/></g></g><g fill="#ffffff" fill-opacity="1"><g transform="translate(235.826583, 273.206526)"><g><path d="M 4.09375 0.109375 C 3.6875 0.109375 3.285156 0.0703125 2.890625 0 C 2.503906 -0.0625 2.144531 -0.15625 1.8125 -0.28125 C 1.476562 -0.414062 1.175781 -0.582031 0.90625 -0.78125 C 0.800781 -0.851562 0.726562 -0.941406 0.6875 -1.046875 C 0.65625 -1.148438 0.648438 -1.25 0.671875 -1.34375 C 0.691406 -1.445312 0.734375 -1.53125 0.796875 -1.59375 C 0.859375 -1.664062 0.9375 -1.707031 1.03125 -1.71875 C 1.132812 -1.726562 1.242188 -1.695312 1.359375 -1.625 C 1.742188 -1.34375 2.15625 -1.140625 2.59375 -1.015625 C 3.039062 -0.890625 3.539062 -0.828125 4.09375 -0.828125 C 4.875 -0.828125 5.453125 -0.972656 5.828125 -1.265625 C 6.203125 -1.554688 6.390625 -1.941406 6.390625 -2.421875 C 6.390625 -2.804688 6.253906 -3.109375 5.984375 -3.328125 C 5.710938 -3.554688 5.253906 -3.734375 4.609375 -3.859375 L 3.265625 -4.140625 C 2.453125 -4.304688 1.84375 -4.585938 1.4375 -4.984375 C 1.03125 -5.378906 0.828125 -5.90625 0.828125 -6.5625 C 0.828125 -6.96875 0.910156 -7.335938 1.078125 -7.671875 C 1.242188 -8.003906 1.472656 -8.289062 1.765625 -8.53125 C 2.054688 -8.769531 2.40625 -8.953125 2.8125 -9.078125 C 3.226562 -9.210938 3.679688 -9.28125 4.171875 -9.28125 C 4.710938 -9.28125 5.21875 -9.203125 5.6875 -9.046875 C 6.164062 -8.898438 6.597656 -8.675781 6.984375 -8.375 C 7.078125 -8.289062 7.140625 -8.195312 7.171875 -8.09375 C 7.210938 -8 7.21875 -7.90625 7.1875 -7.8125 C 7.164062 -7.726562 7.117188 -7.65625 7.046875 -7.59375 C 6.984375 -7.53125 6.898438 -7.492188 6.796875 -7.484375 C 6.703125 -7.472656 6.59375 -7.507812 6.46875 -7.59375 C 6.125 -7.851562 5.765625 -8.039062 5.390625 -8.15625 C 5.023438 -8.269531 4.613281 -8.328125 4.15625 -8.328125 C 3.695312 -8.328125 3.300781 -8.257812 2.96875 -8.125 C 2.632812 -7.988281 2.375 -7.785156 2.1875 -7.515625 C 2 -7.253906 1.90625 -6.953125 1.90625 -6.609375 C 1.90625 -6.191406 2.03125 -5.859375 2.28125 -5.609375 C 2.539062 -5.367188 2.960938 -5.191406 3.546875 -5.078125 L 4.90625 -4.796875 C 5.78125 -4.617188 6.425781 -4.34375 6.84375 -3.96875 C 7.257812 -3.601562 7.46875 -3.101562 7.46875 -2.46875 C 7.46875 -2.082031 7.390625 -1.726562 7.234375 -1.40625 C 7.078125 -1.09375 6.851562 -0.820312 6.5625 -0.59375 C 6.269531 -0.363281 5.914062 -0.1875 5.5 -0.0625 C 5.082031 0.0507812 4.613281 0.109375 4.09375 0.109375 Z M 4.09375 0.109375 "/></g></g></g><g fill="#ffffff" fill-opacity="1"><g transform="translate(248.187186, 273.206526)"><g><path d="M 4.984375 0.109375 C 4.128906 0.109375 3.382812 -0.0820312 2.75 -0.46875 C 2.125 -0.851562 1.640625 -1.394531 1.296875 -2.09375 C 0.960938 -2.789062 0.796875 -3.625 0.796875 -4.59375 C 0.796875 -5.320312 0.890625 -5.972656 1.078125 -6.546875 C 1.273438 -7.117188 1.554688 -7.609375 1.921875 -8.015625 C 2.285156 -8.421875 2.722656 -8.734375 3.234375 -8.953125 C 3.753906 -9.171875 4.335938 -9.28125 4.984375 -9.28125 C 5.847656 -9.28125 6.59375 -9.085938 7.21875 -8.703125 C 7.84375 -8.328125 8.328125 -7.789062 8.671875 -7.09375 C 9.015625 -6.394531 9.1875 -5.566406 9.1875 -4.609375 C 9.1875 -3.878906 9.085938 -3.222656 8.890625 -2.640625 C 8.691406 -2.054688 8.410156 -1.5625 8.046875 -1.15625 C 7.679688 -0.75 7.238281 -0.4375 6.71875 -0.21875 C 6.207031 0 5.628906 0.109375 4.984375 0.109375 Z M 4.984375 -0.828125 C 5.640625 -0.828125 6.191406 -0.972656 6.640625 -1.265625 C 7.097656 -1.566406 7.445312 -2 7.6875 -2.5625 C 7.9375 -3.125 8.0625 -3.800781 8.0625 -4.59375 C 8.0625 -5.78125 7.796875 -6.695312 7.265625 -7.34375 C 6.734375 -8 5.972656 -8.328125 4.984375 -8.328125 C 4.335938 -8.328125 3.785156 -8.179688 3.328125 -7.890625 C 2.878906 -7.597656 2.53125 -7.171875 2.28125 -6.609375 C 2.039062 -6.046875 1.921875 -5.375 1.921875 -4.59375 C 1.921875 -3.414062 2.1875 -2.492188 2.71875 -1.828125 C 3.257812 -1.160156 4.015625 -0.828125 4.984375 -0.828125 Z M 4.984375 -0.828125 "/></g></g></g><g fill="#ffffff" fill-opacity="1"><g transform="translate(262.523176, 273.206526)"><g><path d="M 1.703125 0.09375 C 1.523438 0.09375 1.382812 0.046875 1.28125 -0.046875 C 1.175781 -0.148438 1.125 -0.300781 1.125 -0.5 L 1.125 -8.578125 C 1.125 -8.765625 1.175781 -8.910156 1.28125 -9.015625 C 1.382812 -9.117188 1.53125 -9.171875 1.71875 -9.171875 L 6.4375 -9.171875 C 6.582031 -9.171875 6.691406 -9.128906 6.765625 -9.046875 C 6.847656 -8.972656 6.890625 -8.863281 6.890625 -8.71875 C 6.890625 -8.570312 6.847656 -8.457031 6.765625 -8.375 C 6.691406 -8.300781 6.582031 -8.265625 6.4375 -8.265625 L 2.203125 -8.265625 L 2.203125 -5.0625 L 6.15625 -5.0625 C 6.3125 -5.0625 6.425781 -5.023438 6.5 -4.953125 C 6.582031 -4.878906 6.625 -4.769531 6.625 -4.625 C 6.625 -4.476562 6.582031 -4.363281 6.5 -4.28125 C 6.425781 -4.207031 6.3125 -4.171875 6.15625 -4.171875 L 2.203125 -4.171875 L 2.203125 -0.5 C 2.203125 -0.101562 2.035156 0.09375 1.703125 0.09375 Z M 1.703125 0.09375 "/></g></g></g><g fill="#ffffff" fill-opacity="1"><g transform="translate(274.013043, 273.206526)"><g><path d="M 3.90625 0.09375 C 3.75 0.09375 3.617188 0.046875 3.515625 -0.046875 C 3.421875 -0.148438 3.375 -0.289062 3.375 -0.46875 L 3.375 -8.234375 L 0.453125 -8.234375 C 0.296875 -8.234375 0.175781 -8.273438 0.09375 -8.359375 C 0.0078125 -8.453125 -0.03125 -8.566406 -0.03125 -8.703125 C -0.03125 -8.859375 0.0078125 -8.972656 0.09375 -9.046875 C 0.175781 -9.128906 0.296875 -9.171875 0.453125 -9.171875 L 7.390625 -9.171875 C 7.546875 -9.171875 7.664062 -9.128906 7.75 -9.046875 C 7.832031 -8.972656 7.875 -8.859375 7.875 -8.703125 C 7.875 -8.554688 7.832031 -8.441406 7.75 -8.359375 C 7.664062 -8.273438 7.546875 -8.234375 7.390625 -8.234375 L 4.453125 -8.234375 L 4.453125 -0.46875 C 4.453125 -0.289062 4.40625 -0.148438 4.3125 -0.046875 C 4.226562 0.046875 4.09375 0.09375 3.90625 0.09375 Z M 3.90625 0.09375 "/></g></g></g><g fill="#ffffff" fill-opacity="1"><g transform="translate(286.204685, 273.206526)"><g><path d="M 4.0625 0.09375 C 3.90625 0.09375 3.78125 0.0507812 3.6875 -0.03125 C 3.59375 -0.113281 3.515625 -0.238281 3.453125 -0.40625 L 0.578125 -8.609375 C 0.523438 -8.785156 0.539062 -8.9375 0.625 -9.0625 C 0.71875 -9.1875 0.863281 -9.25 1.0625 -9.25 C 1.207031 -9.25 1.320312 -9.210938 1.40625 -9.140625 C 1.5 -9.066406 1.578125 -8.953125 1.640625 -8.796875 L 4.328125 -0.90625 L 3.875 -0.90625 L 6.609375 -8.765625 C 6.671875 -8.929688 6.742188 -9.050781 6.828125 -9.125 C 6.921875 -9.207031 7.039062 -9.25 7.1875 -9.25 C 7.320312 -9.25 7.429688 -9.207031 7.515625 -9.125 C 7.597656 -9.050781 7.671875 -8.929688 7.734375 -8.765625 L 10.4375 -0.90625 L 10.03125 -0.90625 L 12.75 -8.796875 C 12.789062 -8.941406 12.859375 -9.050781 12.953125 -9.125 C 13.046875 -9.207031 13.164062 -9.25 13.3125 -9.25 C 13.488281 -9.25 13.617188 -9.1875 13.703125 -9.0625 C 13.796875 -8.945312 13.804688 -8.796875 13.734375 -8.609375 L 10.859375 -0.40625 C 10.796875 -0.238281 10.71875 -0.113281 10.625 -0.03125 C 10.53125 0.0507812 10.40625 0.09375 10.25 0.09375 C 10.09375 0.09375 9.96875 0.0507812 9.875 -0.03125 C 9.78125 -0.113281 9.703125 -0.238281 9.640625 -0.40625 L 7.015625 -7.9375 L 7.3125 -7.9375 L 4.671875 -0.40625 C 4.609375 -0.238281 4.53125 -0.113281 4.4375 -0.03125 C 4.351562 0.0507812 4.226562 0.09375 4.0625 0.09375 Z M 4.0625 0.09375 "/></g></g></g><g fill="#ffffff" fill-opacity="1"><g transform="translate(304.88135, 273.206526)"><g><path d="M 0.9375 0.09375 C 0.800781 0.09375 0.691406 0.0625 0.609375 0 C 0.523438 -0.0703125 0.472656 -0.160156 0.453125 -0.265625 C 0.441406 -0.367188 0.46875 -0.492188 0.53125 -0.640625 L 4.109375 -8.78125 C 4.179688 -8.945312 4.269531 -9.066406 4.375 -9.140625 C 4.488281 -9.210938 4.613281 -9.25 4.75 -9.25 C 4.875 -9.25 4.988281 -9.210938 5.09375 -9.140625 C 5.207031 -9.066406 5.300781 -8.945312 5.375 -8.78125 L 8.953125 -0.640625 C 9.023438 -0.492188 9.050781 -0.363281 9.03125 -0.25 C 9.019531 -0.144531 8.972656 -0.0625 8.890625 0 C 8.816406 0.0625 8.710938 0.09375 8.578125 0.09375 C 8.421875 0.09375 8.296875 0.0507812 8.203125 -0.03125 C 8.109375 -0.113281 8.03125 -0.234375 7.96875 -0.390625 L 7 -2.609375 L 7.53125 -2.34375 L 1.9375 -2.34375 L 2.46875 -2.609375 L 1.515625 -0.390625 C 1.441406 -0.222656 1.359375 -0.0976562 1.265625 -0.015625 C 1.179688 0.0546875 1.070312 0.09375 0.9375 0.09375 Z M 4.734375 -7.921875 L 2.640625 -2.984375 L 2.328125 -3.234375 L 7.140625 -3.234375 L 6.84375 -2.984375 L 4.765625 -7.921875 Z M 4.734375 -7.921875 "/></g></g></g><g fill="#ffffff" fill-opacity="1"><g transform="translate(318.723482, 273.206526)"><g><path d="M 1.65625 0.09375 C 1.488281 0.09375 1.359375 0.046875 1.265625 -0.046875 C 1.171875 -0.148438 1.125 -0.289062 1.125 -0.46875 L 1.125 -8.625 C 1.125 -8.800781 1.171875 -8.9375 1.265625 -9.03125 C 1.367188 -9.125 1.503906 -9.171875 1.671875 -9.171875 L 4.765625 -9.171875 C 5.742188 -9.171875 6.492188 -8.9375 7.015625 -8.46875 C 7.546875 -8.007812 7.8125 -7.359375 7.8125 -6.515625 C 7.8125 -5.972656 7.691406 -5.503906 7.453125 -5.109375 C 7.210938 -4.722656 6.863281 -4.425781 6.40625 -4.21875 C 5.945312 -4.007812 5.398438 -3.90625 4.765625 -3.90625 L 4.890625 -4.078125 L 5.140625 -4.078125 C 5.484375 -4.078125 5.78125 -3.988281 6.03125 -3.8125 C 6.28125 -3.644531 6.507812 -3.367188 6.71875 -2.984375 L 7.96875 -0.65625 C 8.039062 -0.539062 8.070312 -0.421875 8.0625 -0.296875 C 8.0625 -0.179688 8.019531 -0.0859375 7.9375 -0.015625 C 7.863281 0.0546875 7.753906 0.09375 7.609375 0.09375 C 7.460938 0.09375 7.335938 0.0625 7.234375 0 C 7.140625 -0.0703125 7.0625 -0.175781 7 -0.3125 L 5.578125 -2.9375 C 5.378906 -3.3125 5.148438 -3.5625 4.890625 -3.6875 C 4.628906 -3.8125 4.285156 -3.875 3.859375 -3.875 L 2.203125 -3.875 L 2.203125 -0.46875 C 2.203125 -0.289062 2.15625 -0.148438 2.0625 -0.046875 C 1.976562 0.046875 1.84375 0.09375 1.65625 0.09375 Z M 2.203125 -4.71875 L 4.609375 -4.71875 C 5.316406 -4.71875 5.851562 -4.863281 6.21875 -5.15625 C 6.582031 -5.457031 6.765625 -5.910156 6.765625 -6.515625 C 6.765625 -7.097656 6.582031 -7.535156 6.21875 -7.828125 C 5.851562 -8.128906 5.316406 -8.28125 4.609375 -8.28125 L 2.203125 -8.28125 Z M 2.203125 -4.71875 "/></g></g></g><g fill="#ffffff" fill-opacity="1"><g transform="translate(331.785859, 273.206526)"><g><path d="M 1.71875 0 C 1.53125 0 1.382812 -0.046875 1.28125 -0.140625 C 1.175781 -0.242188 1.125 -0.390625 1.125 -0.578125 L 1.125 -8.578125 C 1.125 -8.765625 1.175781 -8.910156 1.28125 -9.015625 C 1.382812 -9.117188 1.53125 -9.171875 1.71875 -9.171875 L 6.546875 -9.171875 C 6.691406 -9.171875 6.800781 -9.128906 6.875 -9.046875 C 6.957031 -8.972656 7 -8.863281 7 -8.71875 C 7 -8.570312 6.957031 -8.457031 6.875 -8.375 C 6.800781 -8.300781 6.691406 -8.265625 6.546875 -8.265625 L 2.171875 -8.265625 L 2.171875 -5.09375 L 6.28125 -5.09375 C 6.425781 -5.09375 6.535156 -5.054688 6.609375 -4.984375 C 6.691406 -4.910156 6.734375 -4.800781 6.734375 -4.65625 C 6.734375 -4.507812 6.691406 -4.394531 6.609375 -4.3125 C 6.535156 -4.238281 6.425781 -4.203125 6.28125 -4.203125 L 2.171875 -4.203125 L 2.171875 -0.890625 L 6.546875 -0.890625 C 6.691406 -0.890625 6.800781 -0.847656 6.875 -0.765625 C 6.957031 -0.691406 7 -0.585938 7 -0.453125 C 7 -0.304688 6.957031 -0.191406 6.875 -0.109375 C 6.800781 -0.0351562 6.691406 0 6.546875 0 Z M 1.71875 0 "/></g></g></g><g fill="#ffffff" fill-opacity="1"><g transform="translate(136.396405, 291.206525)"><g><path d="M 1.71875 0 C 1.53125 0 1.382812 -0.046875 1.28125 -0.140625 C 1.175781 -0.242188 1.125 -0.390625 1.125 -0.578125 L 1.125 -8.578125 C 1.125 -8.765625 1.175781 -8.910156 1.28125 -9.015625 C 1.382812 -9.117188 1.53125 -9.171875 1.71875 -9.171875 L 6.546875 -9.171875 C 6.691406 -9.171875 6.800781 -9.128906 6.875 -9.046875 C 6.957031 -8.972656 7 -8.863281 7 -8.71875 C 7 -8.570312 6.957031 -8.457031 6.875 -8.375 C 6.800781 -8.300781 6.691406 -8.265625 6.546875 -8.265625 L 2.171875 -8.265625 L 2.171875 -5.09375 L 6.28125 -5.09375 C 6.425781 -5.09375 6.535156 -5.054688 6.609375 -4.984375 C 6.691406 -4.910156 6.734375 -4.800781 6.734375 -4.65625 C 6.734375 -4.507812 6.691406 -4.394531 6.609375 -4.3125 C 6.535156 -4.238281 6.425781 -4.203125 6.28125 -4.203125 L 2.171875 -4.203125 L 2.171875 -0.890625 L 6.546875 -0.890625 C 6.691406 -0.890625 6.800781 -0.847656 6.875 -0.765625 C 6.957031 -0.691406 7 -0.585938 7 -0.453125 C 7 -0.304688 6.957031 -0.191406 6.875 -0.109375 C 6.800781 -0.0351562 6.691406 0 6.546875 0 Z M 1.71875 0 "/></g></g></g><g fill="#ffffff" fill-opacity="1"><g transform="translate(148.341122, 291.206525)"><g><path d="M 1.015625 0.09375 C 0.867188 0.09375 0.75 0.0546875 0.65625 -0.015625 C 0.5625 -0.0976562 0.507812 -0.195312 0.5 -0.3125 C 0.488281 -0.425781 0.53125 -0.539062 0.625 -0.65625 L 3.765625 -4.890625 L 3.765625 -4.484375 L 0.8125 -8.484375 C 0.707031 -8.617188 0.660156 -8.738281 0.671875 -8.84375 C 0.679688 -8.957031 0.734375 -9.050781 0.828125 -9.125 C 0.921875 -9.207031 1.03125 -9.25 1.15625 -9.25 C 1.28125 -9.25 1.382812 -9.222656 1.46875 -9.171875 C 1.550781 -9.117188 1.640625 -9.03125 1.734375 -8.90625 L 4.40625 -5.25 L 4.0625 -5.25 L 6.71875 -8.90625 C 6.800781 -9.03125 6.882812 -9.117188 6.96875 -9.171875 C 7.0625 -9.222656 7.171875 -9.25 7.296875 -9.25 C 7.429688 -9.25 7.546875 -9.210938 7.640625 -9.140625 C 7.734375 -9.066406 7.78125 -8.972656 7.78125 -8.859375 C 7.789062 -8.742188 7.75 -8.617188 7.65625 -8.484375 L 4.6875 -4.484375 L 4.6875 -4.890625 L 7.84375 -0.65625 C 7.925781 -0.539062 7.960938 -0.425781 7.953125 -0.3125 C 7.941406 -0.195312 7.890625 -0.0976562 7.796875 -0.015625 C 7.710938 0.0546875 7.597656 0.09375 7.453125 0.09375 C 7.335938 0.09375 7.234375 0.0625 7.140625 0 C 7.046875 -0.0507812 6.953125 -0.140625 6.859375 -0.265625 L 4.015625 -4.140625 L 4.4375 -4.140625 L 1.59375 -0.265625 C 1.5 -0.140625 1.40625 -0.0507812 1.3125 0 C 1.21875 0.0625 1.117188 0.09375 1.015625 0.09375 Z M 1.015625 0.09375 "/></g></g></g><g fill="#ffffff" fill-opacity="1"><g transform="translate(161.156574, 291.206525)"><g><path d="M 1.65625 0.09375 C 1.488281 0.09375 1.359375 0.046875 1.265625 -0.046875 C 1.171875 -0.148438 1.125 -0.289062 1.125 -0.46875 L 1.125 -8.625 C 1.125 -8.800781 1.171875 -8.9375 1.265625 -9.03125 C 1.367188 -9.125 1.503906 -9.171875 1.671875 -9.171875 L 4.765625 -9.171875 C 5.742188 -9.171875 6.492188 -8.925781 7.015625 -8.4375 C 7.546875 -7.957031 7.8125 -7.28125 7.8125 -6.40625 C 7.8125 -5.539062 7.546875 -4.863281 7.015625 -4.375 C 6.492188 -3.894531 5.742188 -3.65625 4.765625 -3.65625 L 2.203125 -3.65625 L 2.203125 -0.46875 C 2.203125 -0.289062 2.15625 -0.148438 2.0625 -0.046875 C 1.976562 0.046875 1.84375 0.09375 1.65625 0.09375 Z M 2.203125 -4.546875 L 4.625 -4.546875 C 5.332031 -4.546875 5.863281 -4.703125 6.21875 -5.015625 C 6.582031 -5.335938 6.765625 -5.800781 6.765625 -6.40625 C 6.765625 -7.019531 6.582031 -7.484375 6.21875 -7.796875 C 5.863281 -8.117188 5.332031 -8.28125 4.625 -8.28125 L 2.203125 -8.28125 Z M 2.203125 -4.546875 "/></g></g></g><g fill="#ffffff" fill-opacity="1"><g transform="translate(173.751097, 291.206525)"><g><path d="M 1.71875 0 C 1.53125 0 1.382812 -0.046875 1.28125 -0.140625 C 1.175781 -0.242188 1.125 -0.390625 1.125 -0.578125 L 1.125 -8.578125 C 1.125 -8.765625 1.175781 -8.910156 1.28125 -9.015625 C 1.382812 -9.117188 1.53125 -9.171875 1.71875 -9.171875 L 6.546875 -9.171875 C 6.691406 -9.171875 6.800781 -9.128906 6.875 -9.046875 C 6.957031 -8.972656 7 -8.863281 7 -8.71875 C 7 -8.570312 6.957031 -8.457031 6.875 -8.375 C 6.800781 -8.300781 6.691406 -8.265625 6.546875 -8.265625 L 2.171875 -8.265625 L 2.171875 -5.09375 L 6.28125 -5.09375 C 6.425781 -5.09375 6.535156 -5.054688 6.609375 -4.984375 C 6.691406 -4.910156 6.734375 -4.800781 6.734375 -4.65625 C 6.734375 -4.507812 6.691406 -4.394531 6.609375 -4.3125 C 6.535156 -4.238281 6.425781 -4.203125 6.28125 -4.203125 L 2.171875 -4.203125 L 2.171875 -0.890625 L 6.546875 -0.890625 C 6.691406 -0.890625 6.800781 -0.847656 6.875 -0.765625 C 6.957031 -0.691406 7 -0.585938 7 -0.453125 C 7 -0.304688 6.957031 -0.191406 6.875 -0.109375 C 6.800781 -0.0351562 6.691406 0 6.546875 0 Z M 1.71875 0 "/></g></g></g><g fill="#ffffff" fill-opacity="1"><g transform="translate(185.695816, 291.206525)"><g><path d="M 1.65625 0.09375 C 1.488281 0.09375 1.359375 0.046875 1.265625 -0.046875 C 1.171875 -0.148438 1.125 -0.289062 1.125 -0.46875 L 1.125 -8.625 C 1.125 -8.800781 1.171875 -8.9375 1.265625 -9.03125 C 1.367188 -9.125 1.503906 -9.171875 1.671875 -9.171875 L 4.765625 -9.171875 C 5.742188 -9.171875 6.492188 -8.9375 7.015625 -8.46875 C 7.546875 -8.007812 7.8125 -7.359375 7.8125 -6.515625 C 7.8125 -5.972656 7.691406 -5.503906 7.453125 -5.109375 C 7.210938 -4.722656 6.863281 -4.425781 6.40625 -4.21875 C 5.945312 -4.007812 5.398438 -3.90625 4.765625 -3.90625 L 4.890625 -4.078125 L 5.140625 -4.078125 C 5.484375 -4.078125 5.78125 -3.988281 6.03125 -3.8125 C 6.28125 -3.644531 6.507812 -3.367188 6.71875 -2.984375 L 7.96875 -0.65625 C 8.039062 -0.539062 8.070312 -0.421875 8.0625 -0.296875 C 8.0625 -0.179688 8.019531 -0.0859375 7.9375 -0.015625 C 7.863281 0.0546875 7.753906 0.09375 7.609375 0.09375 C 7.460938 0.09375 7.335938 0.0625 7.234375 0 C 7.140625 -0.0703125 7.0625 -0.175781 7 -0.3125 L 5.578125 -2.9375 C 5.378906 -3.3125 5.148438 -3.5625 4.890625 -3.6875 C 4.628906 -3.8125 4.285156 -3.875 3.859375 -3.875 L 2.203125 -3.875 L 2.203125 -0.46875 C 2.203125 -0.289062 2.15625 -0.148438 2.0625 -0.046875 C 1.976562 0.046875 1.84375 0.09375 1.65625 0.09375 Z M 2.203125 -4.71875 L 4.609375 -4.71875 C 5.316406 -4.71875 5.851562 -4.863281 6.21875 -5.15625 C 6.582031 -5.457031 6.765625 -5.910156 6.765625 -6.515625 C 6.765625 -7.097656 6.582031 -7.535156 6.21875 -7.828125 C 5.851562 -8.128906 5.316406 -8.28125 4.609375 -8.28125 L 2.203125 -8.28125 Z M 2.203125 -4.71875 "/></g></g></g><g fill="#ffffff" fill-opacity="1"><g transform="translate(198.758199, 291.206525)"><g><path d="M 3.90625 0.09375 C 3.75 0.09375 3.617188 0.046875 3.515625 -0.046875 C 3.421875 -0.148438 3.375 -0.289062 3.375 -0.46875 L 3.375 -8.234375 L 0.453125 -8.234375 C 0.296875 -8.234375 0.175781 -8.273438 0.09375 -8.359375 C 0.0078125 -8.453125 -0.03125 -8.566406 -0.03125 -8.703125 C -0.03125 -8.859375 0.0078125 -8.972656 0.09375 -9.046875 C 0.175781 -9.128906 0.296875 -9.171875 0.453125 -9.171875 L 7.390625 -9.171875 C 7.546875 -9.171875 7.664062 -9.128906 7.75 -9.046875 C 7.832031 -8.972656 7.875 -8.859375 7.875 -8.703125 C 7.875 -8.554688 7.832031 -8.441406 7.75 -8.359375 C 7.664062 -8.273438 7.546875 -8.234375 7.390625 -8.234375 L 4.453125 -8.234375 L 4.453125 -0.46875 C 4.453125 -0.289062 4.40625 -0.148438 4.3125 -0.046875 C 4.226562 0.046875 4.09375 0.09375 3.90625 0.09375 Z M 3.90625 0.09375 "/></g></g></g><g fill="#ffffff" fill-opacity="1"><g transform="translate(210.949846, 291.206525)"><g><path d="M 1.65625 0.09375 C 1.488281 0.09375 1.359375 0.046875 1.265625 -0.046875 C 1.171875 -0.148438 1.125 -0.289062 1.125 -0.46875 L 1.125 -8.703125 C 1.125 -8.878906 1.171875 -9.015625 1.265625 -9.109375 C 1.359375 -9.203125 1.488281 -9.25 1.65625 -9.25 C 1.832031 -9.25 1.96875 -9.203125 2.0625 -9.109375 C 2.15625 -9.015625 2.203125 -8.878906 2.203125 -8.703125 L 2.203125 -0.46875 C 2.203125 -0.289062 2.15625 -0.148438 2.0625 -0.046875 C 1.976562 0.046875 1.84375 0.09375 1.65625 0.09375 Z M 1.65625 0.09375 "/></g></g></g><g fill="#ffffff" fill-opacity="1"><g transform="translate(218.657871, 291.206525)"><g><path d="M 4.09375 0.109375 C 3.6875 0.109375 3.285156 0.0703125 2.890625 0 C 2.503906 -0.0625 2.144531 -0.15625 1.8125 -0.28125 C 1.476562 -0.414062 1.175781 -0.582031 0.90625 -0.78125 C 0.800781 -0.851562 0.726562 -0.941406 0.6875 -1.046875 C 0.65625 -1.148438 0.648438 -1.25 0.671875 -1.34375 C 0.691406 -1.445312 0.734375 -1.53125 0.796875 -1.59375 C 0.859375 -1.664062 0.9375 -1.707031 1.03125 -1.71875 C 1.132812 -1.726562 1.242188 -1.695312 1.359375 -1.625 C 1.742188 -1.34375 2.15625 -1.140625 2.59375 -1.015625 C 3.039062 -0.890625 3.539062 -0.828125 4.09375 -0.828125 C 4.875 -0.828125 5.453125 -0.972656 5.828125 -1.265625 C 6.203125 -1.554688 6.390625 -1.941406 6.390625 -2.421875 C 6.390625 -2.804688 6.253906 -3.109375 5.984375 -3.328125 C 5.710938 -3.554688 5.253906 -3.734375 4.609375 -3.859375 L 3.265625 -4.140625 C 2.453125 -4.304688 1.84375 -4.585938 1.4375 -4.984375 C 1.03125 -5.378906 0.828125 -5.90625 0.828125 -6.5625 C 0.828125 -6.96875 0.910156 -7.335938 1.078125 -7.671875 C 1.242188 -8.003906 1.472656 -8.289062 1.765625 -8.53125 C 2.054688 -8.769531 2.40625 -8.953125 2.8125 -9.078125 C 3.226562 -9.210938 3.679688 -9.28125 4.171875 -9.28125 C 4.710938 -9.28125 5.21875 -9.203125 5.6875 -9.046875 C 6.164062 -8.898438 6.597656 -8.675781 6.984375 -8.375 C 7.078125 -8.289062 7.140625 -8.195312 7.171875 -8.09375 C 7.210938 -8 7.21875 -7.90625 7.1875 -7.8125 C 7.164062 -7.726562 7.117188 -7.65625 7.046875 -7.59375 C 6.984375 -7.53125 6.898438 -7.492188 6.796875 -7.484375 C 6.703125 -7.472656 6.59375 -7.507812 6.46875 -7.59375 C 6.125 -7.851562 5.765625 -8.039062 5.390625 -8.15625 C 5.023438 -8.269531 4.613281 -8.328125 4.15625 -8.328125 C 3.695312 -8.328125 3.300781 -8.257812 2.96875 -8.125 C 2.632812 -7.988281 2.375 -7.785156 2.1875 -7.515625 C 2 -7.253906 1.90625 -6.953125 1.90625 -6.609375 C 1.90625 -6.191406 2.03125 -5.859375 2.28125 -5.609375 C 2.539062 -5.367188 2.960938 -5.191406 3.546875 -5.078125 L 4.90625 -4.796875 C 5.78125 -4.617188 6.425781 -4.34375 6.84375 -3.96875 C 7.257812 -3.601562 7.46875 -3.101562 7.46875 -2.46875 C 7.46875 -2.082031 7.390625 -1.726562 7.234375 -1.40625 C 7.078125 -1.09375 6.851562 -0.820312 6.5625 -0.59375 C 6.269531 -0.363281 5.914062 -0.1875 5.5 -0.0625 C 5.082031 0.0507812 4.613281 0.109375 4.09375 0.109375 Z M 4.09375 0.109375 "/></g></g></g><g fill="#ffffff" fill-opacity="1"><g transform="translate(231.018468, 291.206525)"><g><path d="M 1.71875 0 C 1.53125 0 1.382812 -0.046875 1.28125 -0.140625 C 1.175781 -0.242188 1.125 -0.390625 1.125 -0.578125 L 1.125 -8.578125 C 1.125 -8.765625 1.175781 -8.910156 1.28125 -9.015625 C 1.382812 -9.117188 1.53125 -9.171875 1.71875 -9.171875 L 6.546875 -9.171875 C 6.691406 -9.171875 6.800781 -9.128906 6.875 -9.046875 C 6.957031 -8.972656 7 -8.863281 7 -8.71875 C 7 -8.570312 6.957031 -8.457031 6.875 -8.375 C 6.800781 -8.300781 6.691406 -8.265625 6.546875 -8.265625 L 2.171875 -8.265625 L 2.171875 -5.09375 L 6.28125 -5.09375 C 6.425781 -5.09375 6.535156 -5.054688 6.609375 -4.984375 C 6.691406 -4.910156 6.734375 -4.800781 6.734375 -4.65625 C 6.734375 -4.507812 6.691406 -4.394531 6.609375 -4.3125 C 6.535156 -4.238281 6.425781 -4.203125 6.28125 -4.203125 L 2.171875 -4.203125 L 2.171875 -0.890625 L 6.546875 -0.890625 C 6.691406 -0.890625 6.800781 -0.847656 6.875 -0.765625 C 6.957031 -0.691406 7 -0.585938 7 -0.453125 C 7 -0.304688 6.957031 -0.191406 6.875 -0.109375 C 6.800781 -0.0351562 6.691406 0 6.546875 0 Z M 1.71875 0 "/></g></g></g></svg>