<svg xmlns="http://www.w3.org/2000/svg" xmlns:xlink="http://www.w3.org/1999/xlink" width="500" zoomAndPan="magnify" viewBox="0 0 375 374.999991" height="500" preserveAspectRatio="xMidYMid meet" version="1.0"><defs><g/><clipPath id="47d97a2630"><path d="M 124.9375 95.59375 L 250.1875 95.59375 L 250.1875 214.84375 L 124.9375 214.84375 Z M 124.9375 95.59375 " clip-rule="nonzero"/></clipPath></defs><g clip-path="url(#47d97a2630)"><path fill="#1d63ed" d="M 167.003906 196.195312 C 170.316406 196.195312 173.003906 198.886719 173.003906 202.199219 C 173.003906 205.515625 170.316406 208.203125 167.003906 208.203125 C 163.6875 208.203125 161 205.515625 161 202.199219 C 161 198.886719 163.6875 196.195312 167.003906 196.195312 Z M 207.996094 113.988281 C 204.683594 113.988281 201.992188 111.300781 201.992188 107.984375 C 201.992188 104.671875 204.683594 101.984375 207.996094 101.984375 C 211.3125 101.984375 214 104.671875 214 107.984375 C 214 111.300781 211.3125 113.988281 207.996094 113.988281 Z M 250.003906 154.671875 C 249.972656 150.039062 237.550781 145.167969 237.550781 140.945312 C 237.550781 137.511719 237.945312 133.949219 238.34375 130.25 C 238.871094 126.6875 239.269531 122.992188 239.269531 119.558594 C 239.269531 107.285156 231.347656 102.003906 219.601562 102.003906 L 218.859375 102.003906 C 216.746094 98.179688 212.675781 95.589844 207.996094 95.589844 C 201.152344 95.589844 195.601562 101.140625 195.601562 107.984375 C 195.601562 114.832031 201.152344 120.382812 207.996094 120.382812 C 213.621094 120.382812 218.371094 116.636719 219.886719 111.5 C 225.417969 112.214844 227.386719 115.902344 227.386719 121.671875 C 227.386719 124.3125 226.992188 127.214844 226.464844 130.121094 C 226.199219 133.023438 225.671875 136.058594 225.671875 139.625 C 225.539062 148.863281 236.210938 149.976562 236.230469 154.542969 C 236.253906 159.140625 225.539062 160.347656 225.671875 169.585938 C 225.671875 173.152344 226.199219 176.320312 226.464844 179.222656 C 226.992188 182.128906 227.386719 184.898438 227.386719 187.539062 C 227.386719 192.09375 226.128906 195.261719 223.183594 196.835938 L 159.226562 102.003906 L 153.714844 102.003906 L 153.65625 102.046875 C 142.875 102.554688 135.730469 107.902344 135.730469 119.558594 C 135.730469 122.992188 136.128906 126.6875 136.65625 130.25 C 137.050781 133.949219 137.449219 137.511719 137.449219 140.945312 C 137.449219 145.167969 125.027344 150.039062 124.996094 154.671875 C 124.964844 159.28125 137.449219 164.4375 137.449219 168.269531 C 137.449219 171.699219 137.050781 175.132812 136.65625 178.695312 C 136.128906 182.257812 135.730469 185.957031 135.730469 189.253906 C 135.730469 202.585938 143.914062 207.339844 155.398438 207.339844 L 155.71875 207.339844 C 157.671875 211.621094 161.988281 214.597656 167.003906 214.597656 C 173.847656 214.597656 179.402344 209.046875 179.402344 202.199219 C 179.402344 195.351562 173.847656 189.800781 167.003906 189.800781 C 161.679688 189.800781 157.140625 193.15625 155.382812 197.867188 C 149.859375 197.238281 147.613281 193.625 147.613281 187.539062 C 147.613281 184.898438 148.007812 182.128906 148.535156 179.222656 C 148.800781 176.320312 149.328125 173.152344 149.328125 169.585938 C 149.460938 160.347656 138.746094 159.140625 138.769531 154.542969 C 138.789062 149.976562 149.460938 148.863281 149.328125 139.625 C 149.328125 136.058594 148.800781 133.023438 148.535156 130.121094 C 148.007812 127.214844 147.613281 124.3125 147.613281 121.671875 C 147.613281 117.253906 148.769531 114.058594 151.796875 112.480469 L 215.773438 207.339844 L 219.601562 207.339844 C 231.082031 207.339844 239.269531 202.585938 239.269531 189.253906 C 239.269531 185.957031 238.871094 182.261719 238.34375 178.695312 C 237.945312 175.132812 237.550781 171.699219 237.550781 168.269531 C 237.550781 164.4375 250.03125 159.28125 250.003906 154.671875 " fill-opacity="1" fill-rule="nonzero"/></g><g fill="#00084d" fill-opacity="1"><g transform="translate(99.477903, 253.406467)"><g><path d="M 3.890625 0.203125 C 3.398438 0.203125 3.023438 0.0664062 2.765625 -0.203125 C 2.503906 -0.472656 2.375 -0.847656 2.375 -1.328125 L 2.375 -18.90625 C 2.375 -19.40625 2.507812 -19.785156 2.78125 -20.046875 C 3.050781 -20.304688 3.429688 -20.4375 3.921875 -20.4375 L 10.84375 -20.4375 C 13.050781 -20.4375 14.753906 -19.890625 15.953125 -18.796875 C 17.148438 -17.710938 17.75 -16.179688 17.75 -14.203125 C 17.75 -12.210938 17.148438 -10.671875 15.953125 -9.578125 C 14.753906 -8.492188 13.050781 -7.953125 10.84375 -7.953125 L 5.390625 -7.953125 L 5.390625 -1.328125 C 5.390625 -0.847656 5.265625 -0.472656 5.015625 -0.203125 C 4.765625 0.0664062 4.390625 0.203125 3.890625 0.203125 Z M 5.390625 -10.359375 L 10.40625 -10.359375 C 11.863281 -10.359375 12.960938 -10.679688 13.703125 -11.328125 C 14.441406 -11.972656 14.8125 -12.929688 14.8125 -14.203125 C 14.8125 -15.460938 14.441406 -16.414062 13.703125 -17.0625 C 12.960938 -17.707031 11.863281 -18.03125 10.40625 -18.03125 L 5.390625 -18.03125 Z M 5.390625 -10.359375 "/></g></g></g><g fill="#00084d" fill-opacity="1"><g transform="translate(119.163883, 253.406467)"><g><path d="M 2.265625 0.203125 C 1.878906 0.203125 1.566406 0.117188 1.328125 -0.046875 C 1.097656 -0.222656 0.960938 -0.457031 0.921875 -0.75 C 0.890625 -1.039062 0.953125 -1.367188 1.109375 -1.734375 L 8.96875 -19.375 C 9.15625 -19.832031 9.398438 -20.15625 9.703125 -20.34375 C 10.003906 -20.539062 10.335938 -20.640625 10.703125 -20.640625 C 11.046875 -20.640625 11.367188 -20.539062 11.671875 -20.34375 C 11.972656 -20.15625 12.21875 -19.832031 12.40625 -19.375 L 20.265625 -1.734375 C 20.441406 -1.367188 20.507812 -1.035156 20.46875 -0.734375 C 20.4375 -0.441406 20.3125 -0.210938 20.09375 -0.046875 C 19.882812 0.117188 19.585938 0.203125 19.203125 0.203125 C 18.773438 0.203125 18.4375 0.0976562 18.1875 -0.109375 C 17.9375 -0.328125 17.710938 -0.660156 17.515625 -1.109375 L 15.484375 -5.796875 L 16.84375 -4.984375 L 4.5 -4.984375 L 5.828125 -5.796875 L 3.828125 -1.109375 C 3.628906 -0.640625 3.414062 -0.300781 3.1875 -0.09375 C 2.957031 0.101562 2.648438 0.203125 2.265625 0.203125 Z M 10.640625 -17.109375 L 6.265625 -6.734375 L 5.53125 -7.421875 L 15.78125 -7.421875 L 15.109375 -6.734375 L 10.703125 -17.109375 Z M 10.640625 -17.109375 "/></g></g></g><g fill="#00084d" fill-opacity="1"><g transform="translate(141.575124, 253.406467)"><g><path d="M 8.875 0.203125 C 8.394531 0.203125 8.019531 0.0664062 7.75 -0.203125 C 7.488281 -0.472656 7.359375 -0.847656 7.359375 -1.328125 L 7.359375 -17.921875 L 1.21875 -17.921875 C 0.8125 -17.921875 0.488281 -18.03125 0.25 -18.25 C 0.0195312 -18.476562 -0.09375 -18.796875 -0.09375 -19.203125 C -0.09375 -19.609375 0.0195312 -19.914062 0.25 -20.125 C 0.488281 -20.332031 0.8125 -20.4375 1.21875 -20.4375 L 16.5 -20.4375 C 16.925781 -20.4375 17.253906 -20.332031 17.484375 -20.125 C 17.710938 -19.914062 17.828125 -19.609375 17.828125 -19.203125 C 17.828125 -18.796875 17.710938 -18.476562 17.484375 -18.25 C 17.253906 -18.03125 16.925781 -17.921875 16.5 -17.921875 L 10.359375 -17.921875 L 10.359375 -1.328125 C 10.359375 -0.847656 10.234375 -0.472656 9.984375 -0.203125 C 9.742188 0.0664062 9.375 0.203125 8.875 0.203125 Z M 8.875 0.203125 "/></g></g></g><g fill="#00084d" fill-opacity="1"><g transform="translate(160.362344, 253.406467)"><g><path d="M 3.890625 0.203125 C 3.398438 0.203125 3.023438 0.0664062 2.765625 -0.203125 C 2.503906 -0.472656 2.375 -0.847656 2.375 -1.328125 L 2.375 -19.109375 C 2.375 -19.609375 2.503906 -19.988281 2.765625 -20.25 C 3.023438 -20.507812 3.398438 -20.640625 3.890625 -20.640625 C 4.367188 -20.640625 4.738281 -20.507812 5 -20.25 C 5.257812 -19.988281 5.390625 -19.609375 5.390625 -19.109375 L 5.390625 -11.625 L 16.84375 -11.625 L 16.84375 -19.109375 C 16.84375 -19.609375 16.972656 -19.988281 17.234375 -20.25 C 17.492188 -20.507812 17.867188 -20.640625 18.359375 -20.640625 C 18.835938 -20.640625 19.203125 -20.507812 19.453125 -20.25 C 19.710938 -19.988281 19.84375 -19.609375 19.84375 -19.109375 L 19.84375 -1.328125 C 19.84375 -0.847656 19.710938 -0.472656 19.453125 -0.203125 C 19.203125 0.0664062 18.835938 0.203125 18.359375 0.203125 C 17.867188 0.203125 17.492188 0.0664062 17.234375 -0.203125 C 16.972656 -0.472656 16.84375 -0.847656 16.84375 -1.328125 L 16.84375 -9.109375 L 5.390625 -9.109375 L 5.390625 -1.328125 C 5.390625 -0.847656 5.265625 -0.472656 5.015625 -0.203125 C 4.765625 0.0664062 4.390625 0.203125 3.890625 0.203125 Z M 3.890625 0.203125 "/></g></g></g><g fill="#00084d" fill-opacity="1"><g transform="translate(183.672344, 253.406467)"><g><path d="M 3.921875 0 C 3.429688 0 3.050781 -0.132812 2.78125 -0.40625 C 2.507812 -0.675781 2.375 -1.050781 2.375 -1.53125 L 2.375 -19.03125 C 2.375 -19.53125 2.503906 -19.910156 2.765625 -20.171875 C 3.023438 -20.429688 3.398438 -20.5625 3.890625 -20.5625 C 4.367188 -20.5625 4.738281 -20.429688 5 -20.171875 C 5.257812 -19.910156 5.390625 -19.53125 5.390625 -19.03125 L 5.390625 -2.578125 L 14.390625 -2.578125 C 14.804688 -2.578125 15.128906 -2.460938 15.359375 -2.234375 C 15.597656 -2.015625 15.71875 -1.707031 15.71875 -1.3125 C 15.71875 -0.90625 15.597656 -0.582031 15.359375 -0.34375 C 15.128906 -0.113281 14.804688 0 14.390625 0 Z M 3.921875 0 "/></g></g></g><g fill="#00084d" fill-opacity="1"><g transform="translate(200.749023, 253.406467)"><g><path d="M 8.78125 0.203125 C 8.300781 0.203125 7.929688 0.0664062 7.671875 -0.203125 C 7.410156 -0.472656 7.28125 -0.859375 7.28125 -1.359375 L 7.28125 -10.5625 L 7.953125 -8.640625 L 0.78125 -18.59375 C 0.570312 -18.882812 0.472656 -19.1875 0.484375 -19.5 C 0.503906 -19.820312 0.632812 -20.09375 0.875 -20.3125 C 1.125 -20.53125 1.453125 -20.640625 1.859375 -20.640625 C 2.160156 -20.640625 2.441406 -20.5625 2.703125 -20.40625 C 2.972656 -20.257812 3.222656 -20.019531 3.453125 -19.6875 L 9.1875 -11.71875 L 8.5 -11.71875 L 14.234375 -19.6875 C 14.484375 -20.039062 14.722656 -20.285156 14.953125 -20.421875 C 15.191406 -20.566406 15.484375 -20.640625 15.828125 -20.640625 C 16.234375 -20.640625 16.546875 -20.535156 16.765625 -20.328125 C 16.992188 -20.128906 17.113281 -19.867188 17.125 -19.546875 C 17.132812 -19.234375 17.015625 -18.90625 16.765625 -18.5625 L 9.65625 -8.640625 L 10.265625 -10.5625 L 10.265625 -1.359375 C 10.265625 -0.316406 9.769531 0.203125 8.78125 0.203125 Z M 8.78125 0.203125 "/></g></g></g><g fill="#00084d" fill-opacity="1"><g transform="translate(219.391276, 253.406467)"><g><path d="M 2.75 0 C 2.363281 0 2.050781 -0.078125 1.8125 -0.234375 C 1.570312 -0.390625 1.40625 -0.609375 1.3125 -0.890625 C 1.226562 -1.171875 1.226562 -1.476562 1.3125 -1.8125 C 1.40625 -2.144531 1.585938 -2.5 1.859375 -2.875 L 13.453125 -18.9375 L 13.453125 -17.921875 L 2.515625 -17.921875 C 2.078125 -17.921875 1.738281 -18.03125 1.5 -18.25 C 1.269531 -18.476562 1.15625 -18.796875 1.15625 -19.203125 C 1.15625 -19.609375 1.269531 -19.914062 1.5 -20.125 C 1.738281 -20.332031 2.078125 -20.4375 2.515625 -20.4375 L 14.84375 -20.4375 C 15.226562 -20.4375 15.546875 -20.359375 15.796875 -20.203125 C 16.054688 -20.054688 16.226562 -19.847656 16.3125 -19.578125 C 16.394531 -19.304688 16.394531 -18.992188 16.3125 -18.640625 C 16.226562 -18.296875 16.050781 -17.941406 15.78125 -17.578125 L 4.140625 -1.515625 L 4.140625 -2.515625 L 15.515625 -2.515625 C 15.960938 -2.515625 16.300781 -2.410156 16.53125 -2.203125 C 16.757812 -1.992188 16.875 -1.6875 16.875 -1.28125 C 16.875 -0.875 16.757812 -0.554688 16.53125 -0.328125 C 16.300781 -0.109375 15.960938 0 15.515625 0 Z M 2.75 0 "/></g></g></g><g fill="#00084d" fill-opacity="1"><g transform="translate(237.743616, 253.406467)"><g><path d="M 4 0 C 3.476562 0 3.078125 -0.140625 2.796875 -0.421875 C 2.515625 -0.703125 2.375 -1.101562 2.375 -1.625 L 2.375 -18.828125 C 2.375 -19.347656 2.515625 -19.742188 2.796875 -20.015625 C 3.078125 -20.296875 3.476562 -20.4375 4 -20.4375 L 14.59375 -20.4375 C 15 -20.4375 15.304688 -20.335938 15.515625 -20.140625 C 15.722656 -19.941406 15.828125 -19.644531 15.828125 -19.25 C 15.828125 -18.84375 15.722656 -18.535156 15.515625 -18.328125 C 15.304688 -18.117188 15 -18.015625 14.59375 -18.015625 L 5.28125 -18.015625 L 5.28125 -11.59375 L 13.953125 -11.59375 C 14.378906 -11.59375 14.691406 -11.488281 14.890625 -11.28125 C 15.097656 -11.070312 15.203125 -10.769531 15.203125 -10.375 C 15.203125 -9.96875 15.097656 -9.660156 14.890625 -9.453125 C 14.691406 -9.253906 14.378906 -9.15625 13.953125 -9.15625 L 5.28125 -9.15625 L 5.28125 -2.4375 L 14.59375 -2.4375 C 15 -2.4375 15.304688 -2.328125 15.515625 -2.109375 C 15.722656 -1.898438 15.828125 -1.601562 15.828125 -1.21875 C 15.828125 -0.8125 15.722656 -0.503906 15.515625 -0.296875 C 15.304688 -0.0976562 15 0 14.59375 0 Z M 4 0 "/></g></g></g><g fill="#00084d" fill-opacity="1"><g transform="translate(255.893005, 253.406467)"><g><path d="M 3.890625 0.203125 C 3.398438 0.203125 3.023438 0.0664062 2.765625 -0.203125 C 2.503906 -0.472656 2.375 -0.847656 2.375 -1.328125 L 2.375 -18.90625 C 2.375 -19.40625 2.507812 -19.785156 2.78125 -20.046875 C 3.050781 -20.304688 3.429688 -20.4375 3.921875 -20.4375 L 10.84375 -20.4375 C 13.050781 -20.4375 14.753906 -19.914062 15.953125 -18.875 C 17.148438 -17.832031 17.75 -16.351562 17.75 -14.4375 C 17.75 -13.207031 17.476562 -12.144531 16.9375 -11.25 C 16.394531 -10.363281 15.601562 -9.6875 14.5625 -9.21875 C 13.53125 -8.757812 12.289062 -8.53125 10.84375 -8.53125 L 11.109375 -8.9375 L 11.859375 -8.9375 C 12.628906 -8.9375 13.300781 -8.738281 13.875 -8.34375 C 14.445312 -7.957031 14.960938 -7.34375 15.421875 -6.5 L 17.921875 -1.859375 C 18.117188 -1.503906 18.210938 -1.164062 18.203125 -0.84375 C 18.191406 -0.53125 18.070312 -0.273438 17.84375 -0.078125 C 17.625 0.109375 17.3125 0.203125 16.90625 0.203125 C 16.476562 0.203125 16.132812 0.113281 15.875 -0.0625 C 15.613281 -0.25 15.378906 -0.53125 15.171875 -0.90625 L 12.125 -6.53125 C 11.71875 -7.28125 11.253906 -7.785156 10.734375 -8.046875 C 10.210938 -8.304688 9.523438 -8.4375 8.671875 -8.4375 L 5.390625 -8.4375 L 5.390625 -1.328125 C 5.390625 -0.847656 5.265625 -0.472656 5.015625 -0.203125 C 4.765625 0.0664062 4.390625 0.203125 3.890625 0.203125 Z M 5.390625 -10.703125 L 10.359375 -10.703125 C 11.828125 -10.703125 12.9375 -11.007812 13.6875 -11.625 C 14.4375 -12.25 14.8125 -13.171875 14.8125 -14.390625 C 14.8125 -15.585938 14.4375 -16.492188 13.6875 -17.109375 C 12.9375 -17.722656 11.828125 -18.03125 10.359375 -18.03125 L 5.390625 -18.03125 Z M 5.390625 -10.703125 "/></g></g></g></svg>