<svg xmlns="http://www.w3.org/2000/svg" xmlns:xlink="http://www.w3.org/1999/xlink" width="500" zoomAndPan="magnify" viewBox="0 0 375 374.999991" height="500" preserveAspectRatio="xMidYMid meet" version="1.0"><defs><g/><clipPath id="b580deac20"><path d="M 30.238281 112.011719 L 155.488281 112.011719 L 155.488281 231.261719 L 30.238281 231.261719 Z M 30.238281 112.011719 " clip-rule="nonzero"/></clipPath></defs><g clip-path="url(#b580deac20)"><path fill="#1d63ed" d="M 72.300781 212.613281 C 75.617188 212.613281 78.304688 215.300781 78.304688 218.617188 C 78.304688 221.933594 75.617188 224.621094 72.300781 224.621094 C 68.984375 224.621094 66.296875 221.933594 66.296875 218.617188 C 66.296875 215.300781 68.984375 212.613281 72.300781 212.613281 Z M 113.296875 130.40625 C 109.984375 130.40625 107.292969 127.71875 107.292969 124.402344 C 107.292969 121.085938 109.984375 118.398438 113.296875 118.398438 C 116.613281 118.398438 119.300781 121.085938 119.300781 124.402344 C 119.300781 127.71875 116.613281 130.40625 113.296875 130.40625 Z M 155.300781 171.089844 C 155.273438 166.457031 142.851562 161.585938 142.851562 157.359375 C 142.851562 153.929688 143.246094 150.367188 143.640625 146.667969 C 144.171875 143.105469 144.566406 139.410156 144.566406 135.976562 C 144.566406 123.703125 136.648438 118.421875 124.898438 118.421875 L 124.15625 118.421875 C 122.046875 114.597656 117.976562 112.003906 113.296875 112.003906 C 106.449219 112.003906 100.898438 117.554688 100.898438 124.402344 C 100.898438 131.25 106.449219 136.800781 113.296875 136.800781 C 118.921875 136.800781 123.667969 133.054688 125.1875 127.917969 C 130.714844 128.632812 132.6875 132.320312 132.6875 138.089844 C 132.6875 140.730469 132.289062 143.632812 131.761719 146.535156 C 131.5 149.441406 130.972656 152.476562 130.972656 156.042969 C 130.839844 165.28125 141.511719 166.390625 141.53125 170.960938 C 141.550781 175.558594 130.839844 176.765625 130.972656 186.003906 C 130.972656 189.570312 131.5 192.738281 131.761719 195.640625 C 132.289062 198.542969 132.6875 201.316406 132.6875 203.957031 C 132.6875 208.511719 131.429688 211.679688 128.484375 213.253906 L 64.527344 118.421875 L 59.015625 118.421875 L 58.957031 118.460938 C 48.175781 118.972656 41.03125 124.320312 41.03125 135.976562 C 41.03125 139.410156 41.425781 143.105469 41.957031 146.667969 C 42.351562 150.367188 42.746094 153.929688 42.746094 157.359375 C 42.746094 161.585938 30.328125 166.457031 30.296875 171.089844 C 30.265625 175.699219 42.746094 180.855469 42.746094 184.683594 C 42.746094 188.117188 42.351562 191.550781 41.957031 195.113281 C 41.425781 198.675781 41.03125 202.371094 41.03125 205.671875 C 41.03125 219.003906 49.214844 223.757812 60.699219 223.757812 L 61.019531 223.757812 C 62.972656 228.039062 67.289062 231.015625 72.300781 231.015625 C 79.148438 231.015625 84.699219 225.464844 84.699219 218.617188 C 84.699219 211.769531 79.148438 206.21875 72.300781 206.21875 C 66.976562 206.21875 62.441406 209.574219 60.683594 214.285156 C 55.160156 213.65625 52.910156 210.042969 52.910156 203.957031 C 52.910156 201.316406 53.308594 198.542969 53.835938 195.640625 C 54.097656 192.738281 54.628906 189.570312 54.628906 186.003906 C 54.757812 176.765625 44.046875 175.558594 44.066406 170.960938 C 44.089844 166.390625 54.757812 165.28125 54.628906 156.042969 C 54.628906 152.476562 54.097656 149.441406 53.835938 146.535156 C 53.308594 143.632812 52.910156 140.730469 52.910156 138.089844 C 52.910156 133.671875 54.070312 130.472656 57.097656 128.898438 L 121.074219 223.757812 L 124.898438 223.757812 C 136.382812 223.757812 144.566406 219.003906 144.566406 205.671875 C 144.566406 202.371094 144.171875 198.675781 143.640625 195.113281 C 143.246094 191.550781 142.851562 188.117188 142.851562 184.683594 C 142.851562 180.855469 155.332031 175.699219 155.300781 171.089844 " fill-opacity="1" fill-rule="nonzero"/></g><g fill="#ffffff" fill-opacity="1"><g transform="translate(177.24287, 180.521472)"><g><path d="M 3.890625 0.203125 C 3.398438 0.203125 3.023438 0.0664062 2.765625 -0.203125 C 2.503906 -0.472656 2.375 -0.847656 2.375 -1.328125 L 2.375 -18.90625 C 2.375 -19.40625 2.507812 -19.785156 2.78125 -20.046875 C 3.050781 -20.304688 3.429688 -20.4375 3.921875 -20.4375 L 10.84375 -20.4375 C 13.050781 -20.4375 14.753906 -19.890625 15.953125 -18.796875 C 17.148438 -17.710938 17.75 -16.179688 17.75 -14.203125 C 17.75 -12.210938 17.148438 -10.671875 15.953125 -9.578125 C 14.753906 -8.492188 13.050781 -7.953125 10.84375 -7.953125 L 5.390625 -7.953125 L 5.390625 -1.328125 C 5.390625 -0.847656 5.265625 -0.472656 5.015625 -0.203125 C 4.765625 0.0664062 4.390625 0.203125 3.890625 0.203125 Z M 5.390625 -10.359375 L 10.40625 -10.359375 C 11.863281 -10.359375 12.960938 -10.679688 13.703125 -11.328125 C 14.441406 -11.972656 14.8125 -12.929688 14.8125 -14.203125 C 14.8125 -15.460938 14.441406 -16.414062 13.703125 -17.0625 C 12.960938 -17.707031 11.863281 -18.03125 10.40625 -18.03125 L 5.390625 -18.03125 Z M 5.390625 -10.359375 "/></g></g></g><g fill="#ffffff" fill-opacity="1"><g transform="translate(196.92885, 180.521472)"><g><path d="M 2.265625 0.203125 C 1.878906 0.203125 1.566406 0.117188 1.328125 -0.046875 C 1.097656 -0.222656 0.960938 -0.457031 0.921875 -0.75 C 0.890625 -1.039062 0.953125 -1.367188 1.109375 -1.734375 L 8.96875 -19.375 C 9.15625 -19.832031 9.398438 -20.15625 9.703125 -20.34375 C 10.003906 -20.539062 10.335938 -20.640625 10.703125 -20.640625 C 11.046875 -20.640625 11.367188 -20.539062 11.671875 -20.34375 C 11.972656 -20.15625 12.21875 -19.832031 12.40625 -19.375 L 20.265625 -1.734375 C 20.441406 -1.367188 20.507812 -1.035156 20.46875 -0.734375 C 20.4375 -0.441406 20.3125 -0.210938 20.09375 -0.046875 C 19.882812 0.117188 19.585938 0.203125 19.203125 0.203125 C 18.773438 0.203125 18.4375 0.0976562 18.1875 -0.109375 C 17.9375 -0.328125 17.710938 -0.660156 17.515625 -1.109375 L 15.484375 -5.796875 L 16.84375 -4.984375 L 4.5 -4.984375 L 5.828125 -5.796875 L 3.828125 -1.109375 C 3.628906 -0.640625 3.414062 -0.300781 3.1875 -0.09375 C 2.957031 0.101562 2.648438 0.203125 2.265625 0.203125 Z M 10.640625 -17.109375 L 6.265625 -6.734375 L 5.53125 -7.421875 L 15.78125 -7.421875 L 15.109375 -6.734375 L 10.703125 -17.109375 Z M 10.640625 -17.109375 "/></g></g></g><g fill="#ffffff" fill-opacity="1"><g transform="translate(219.340091, 180.521472)"><g><path d="M 8.875 0.203125 C 8.394531 0.203125 8.019531 0.0664062 7.75 -0.203125 C 7.488281 -0.472656 7.359375 -0.847656 7.359375 -1.328125 L 7.359375 -17.921875 L 1.21875 -17.921875 C 0.8125 -17.921875 0.488281 -18.03125 0.25 -18.25 C 0.0195312 -18.476562 -0.09375 -18.796875 -0.09375 -19.203125 C -0.09375 -19.609375 0.0195312 -19.914062 0.25 -20.125 C 0.488281 -20.332031 0.8125 -20.4375 1.21875 -20.4375 L 16.5 -20.4375 C 16.925781 -20.4375 17.253906 -20.332031 17.484375 -20.125 C 17.710938 -19.914062 17.828125 -19.609375 17.828125 -19.203125 C 17.828125 -18.796875 17.710938 -18.476562 17.484375 -18.25 C 17.253906 -18.03125 16.925781 -17.921875 16.5 -17.921875 L 10.359375 -17.921875 L 10.359375 -1.328125 C 10.359375 -0.847656 10.234375 -0.472656 9.984375 -0.203125 C 9.742188 0.0664062 9.375 0.203125 8.875 0.203125 Z M 8.875 0.203125 "/></g></g></g><g fill="#ffffff" fill-opacity="1"><g transform="translate(238.127311, 180.521472)"><g><path d="M 3.890625 0.203125 C 3.398438 0.203125 3.023438 0.0664062 2.765625 -0.203125 C 2.503906 -0.472656 2.375 -0.847656 2.375 -1.328125 L 2.375 -19.109375 C 2.375 -19.609375 2.503906 -19.988281 2.765625 -20.25 C 3.023438 -20.507812 3.398438 -20.640625 3.890625 -20.640625 C 4.367188 -20.640625 4.738281 -20.507812 5 -20.25 C 5.257812 -19.988281 5.390625 -19.609375 5.390625 -19.109375 L 5.390625 -11.625 L 16.84375 -11.625 L 16.84375 -19.109375 C 16.84375 -19.609375 16.972656 -19.988281 17.234375 -20.25 C 17.492188 -20.507812 17.867188 -20.640625 18.359375 -20.640625 C 18.835938 -20.640625 19.203125 -20.507812 19.453125 -20.25 C 19.710938 -19.988281 19.84375 -19.609375 19.84375 -19.109375 L 19.84375 -1.328125 C 19.84375 -0.847656 19.710938 -0.472656 19.453125 -0.203125 C 19.203125 0.0664062 18.835938 0.203125 18.359375 0.203125 C 17.867188 0.203125 17.492188 0.0664062 17.234375 -0.203125 C 16.972656 -0.472656 16.84375 -0.847656 16.84375 -1.328125 L 16.84375 -9.109375 L 5.390625 -9.109375 L 5.390625 -1.328125 C 5.390625 -0.847656 5.265625 -0.472656 5.015625 -0.203125 C 4.765625 0.0664062 4.390625 0.203125 3.890625 0.203125 Z M 3.890625 0.203125 "/></g></g></g><g fill="#ffffff" fill-opacity="1"><g transform="translate(261.437311, 180.521472)"><g><path d="M 3.921875 0 C 3.429688 0 3.050781 -0.132812 2.78125 -0.40625 C 2.507812 -0.675781 2.375 -1.050781 2.375 -1.53125 L 2.375 -19.03125 C 2.375 -19.53125 2.503906 -19.910156 2.765625 -20.171875 C 3.023438 -20.429688 3.398438 -20.5625 3.890625 -20.5625 C 4.367188 -20.5625 4.738281 -20.429688 5 -20.171875 C 5.257812 -19.910156 5.390625 -19.53125 5.390625 -19.03125 L 5.390625 -2.578125 L 14.390625 -2.578125 C 14.804688 -2.578125 15.128906 -2.460938 15.359375 -2.234375 C 15.597656 -2.015625 15.71875 -1.707031 15.71875 -1.3125 C 15.71875 -0.90625 15.597656 -0.582031 15.359375 -0.34375 C 15.128906 -0.113281 14.804688 0 14.390625 0 Z M 3.921875 0 "/></g></g></g><g fill="#ffffff" fill-opacity="1"><g transform="translate(278.51399, 180.521472)"><g><path d="M 8.78125 0.203125 C 8.300781 0.203125 7.929688 0.0664062 7.671875 -0.203125 C 7.410156 -0.472656 7.28125 -0.859375 7.28125 -1.359375 L 7.28125 -10.5625 L 7.953125 -8.640625 L 0.78125 -18.59375 C 0.570312 -18.882812 0.472656 -19.1875 0.484375 -19.5 C 0.503906 -19.820312 0.632812 -20.09375 0.875 -20.3125 C 1.125 -20.53125 1.453125 -20.640625 1.859375 -20.640625 C 2.160156 -20.640625 2.441406 -20.5625 2.703125 -20.40625 C 2.972656 -20.257812 3.222656 -20.019531 3.453125 -19.6875 L 9.1875 -11.71875 L 8.5 -11.71875 L 14.234375 -19.6875 C 14.484375 -20.039062 14.722656 -20.285156 14.953125 -20.421875 C 15.191406 -20.566406 15.484375 -20.640625 15.828125 -20.640625 C 16.234375 -20.640625 16.546875 -20.535156 16.765625 -20.328125 C 16.992188 -20.128906 17.113281 -19.867188 17.125 -19.546875 C 17.132812 -19.234375 17.015625 -18.90625 16.765625 -18.5625 L 9.65625 -8.640625 L 10.265625 -10.5625 L 10.265625 -1.359375 C 10.265625 -0.316406 9.769531 0.203125 8.78125 0.203125 Z M 8.78125 0.203125 "/></g></g></g><g fill="#ffffff" fill-opacity="1"><g transform="translate(297.156243, 180.521472)"><g><path d="M 2.75 0 C 2.363281 0 2.050781 -0.078125 1.8125 -0.234375 C 1.570312 -0.390625 1.40625 -0.609375 1.3125 -0.890625 C 1.226562 -1.171875 1.226562 -1.476562 1.3125 -1.8125 C 1.40625 -2.144531 1.585938 -2.5 1.859375 -2.875 L 13.453125 -18.9375 L 13.453125 -17.921875 L 2.515625 -17.921875 C 2.078125 -17.921875 1.738281 -18.03125 1.5 -18.25 C 1.269531 -18.476562 1.15625 -18.796875 1.15625 -19.203125 C 1.15625 -19.609375 1.269531 -19.914062 1.5 -20.125 C 1.738281 -20.332031 2.078125 -20.4375 2.515625 -20.4375 L 14.84375 -20.4375 C 15.226562 -20.4375 15.546875 -20.359375 15.796875 -20.203125 C 16.054688 -20.054688 16.226562 -19.847656 16.3125 -19.578125 C 16.394531 -19.304688 16.394531 -18.992188 16.3125 -18.640625 C 16.226562 -18.296875 16.050781 -17.941406 15.78125 -17.578125 L 4.140625 -1.515625 L 4.140625 -2.515625 L 15.515625 -2.515625 C 15.960938 -2.515625 16.300781 -2.410156 16.53125 -2.203125 C 16.757812 -1.992188 16.875 -1.6875 16.875 -1.28125 C 16.875 -0.875 16.757812 -0.554688 16.53125 -0.328125 C 16.300781 -0.109375 15.960938 0 15.515625 0 Z M 2.75 0 "/></g></g></g><g fill="#ffffff" fill-opacity="1"><g transform="translate(315.508582, 180.521472)"><g><path d="M 4 0 C 3.476562 0 3.078125 -0.140625 2.796875 -0.421875 C 2.515625 -0.703125 2.375 -1.101562 2.375 -1.625 L 2.375 -18.828125 C 2.375 -19.347656 2.515625 -19.742188 2.796875 -20.015625 C 3.078125 -20.296875 3.476562 -20.4375 4 -20.4375 L 14.59375 -20.4375 C 15 -20.4375 15.304688 -20.335938 15.515625 -20.140625 C 15.722656 -19.941406 15.828125 -19.644531 15.828125 -19.25 C 15.828125 -18.84375 15.722656 -18.535156 15.515625 -18.328125 C 15.304688 -18.117188 15 -18.015625 14.59375 -18.015625 L 5.28125 -18.015625 L 5.28125 -11.59375 L 13.953125 -11.59375 C 14.378906 -11.59375 14.691406 -11.488281 14.890625 -11.28125 C 15.097656 -11.070312 15.203125 -10.769531 15.203125 -10.375 C 15.203125 -9.96875 15.097656 -9.660156 14.890625 -9.453125 C 14.691406 -9.253906 14.378906 -9.15625 13.953125 -9.15625 L 5.28125 -9.15625 L 5.28125 -2.4375 L 14.59375 -2.4375 C 15 -2.4375 15.304688 -2.328125 15.515625 -2.109375 C 15.722656 -1.898438 15.828125 -1.601562 15.828125 -1.21875 C 15.828125 -0.8125 15.722656 -0.503906 15.515625 -0.296875 C 15.304688 -0.0976562 15 0 14.59375 0 Z M 4 0 "/></g></g></g><g fill="#ffffff" fill-opacity="1"><g transform="translate(333.657972, 180.521472)"><g><path d="M 3.890625 0.203125 C 3.398438 0.203125 3.023438 0.0664062 2.765625 -0.203125 C 2.503906 -0.472656 2.375 -0.847656 2.375 -1.328125 L 2.375 -18.90625 C 2.375 -19.40625 2.507812 -19.785156 2.78125 -20.046875 C 3.050781 -20.304688 3.429688 -20.4375 3.921875 -20.4375 L 10.84375 -20.4375 C 13.050781 -20.4375 14.753906 -19.914062 15.953125 -18.875 C 17.148438 -17.832031 17.75 -16.351562 17.75 -14.4375 C 17.75 -13.207031 17.476562 -12.144531 16.9375 -11.25 C 16.394531 -10.363281 15.601562 -9.6875 14.5625 -9.21875 C 13.53125 -8.757812 12.289062 -8.53125 10.84375 -8.53125 L 11.109375 -8.9375 L 11.859375 -8.9375 C 12.628906 -8.9375 13.300781 -8.738281 13.875 -8.34375 C 14.445312 -7.957031 14.960938 -7.34375 15.421875 -6.5 L 17.921875 -1.859375 C 18.117188 -1.503906 18.210938 -1.164062 18.203125 -0.84375 C 18.191406 -0.53125 18.070312 -0.273438 17.84375 -0.078125 C 17.625 0.109375 17.3125 0.203125 16.90625 0.203125 C 16.476562 0.203125 16.132812 0.113281 15.875 -0.0625 C 15.613281 -0.25 15.378906 -0.53125 15.171875 -0.90625 L 12.125 -6.53125 C 11.71875 -7.28125 11.253906 -7.785156 10.734375 -8.046875 C 10.210938 -8.304688 9.523438 -8.4375 8.671875 -8.4375 L 5.390625 -8.4375 L 5.390625 -1.328125 C 5.390625 -0.847656 5.265625 -0.472656 5.015625 -0.203125 C 4.765625 0.0664062 4.390625 0.203125 3.890625 0.203125 Z M 5.390625 -10.703125 L 10.359375 -10.703125 C 11.828125 -10.703125 12.9375 -11.007812 13.6875 -11.625 C 14.4375 -12.25 14.8125 -13.171875 14.8125 -14.390625 C 14.8125 -15.585938 14.4375 -16.492188 13.6875 -17.109375 C 12.9375 -17.722656 11.828125 -18.03125 10.359375 -18.03125 L 5.390625 -18.03125 Z M 5.390625 -10.703125 "/></g></g></g></svg>